<?xml version="1.0" encoding="UTF-8"?>
<svg id="Layer_1" xmlns="http://www.w3.org/2000/svg" version="1.1" viewBox="0 0 7000 5000">
  <!-- Generator: Adobe Illustrator 29.5.1, SVG Export Plug-In . SVG Version: 2.1.0 Build 141)  -->
  <defs>
    <style>
      .st0 {
        fill: #1e6f83;
      }

      .st1 {
        fill: #0d515f;
      }

      .st2 {
        fill: #fdcb13;
      }

      .st3 {
        fill: #cc7e54;
      }

      .st4 {
        fill: #212626;
      }

      .st5 {
        fill: #171b2a;
      }

      .st6 {
        fill: #fefefe;
      }

      .st7 {
        fill: #d5b1bd;
      }

      .st8 {
        fill: #b05f42;
      }

      .st9 {
        fill: #ef4e46;
      }
    </style>
  </defs>
  <g id="Generative_Object">
    <path class="st9" d="M3040,1682.8c89.9,246.5,621.1,252.9,694.6,0,140.5,37.1,313.4,17.1,416.7,132,156.1,173.5,428.9,931.3,368.1,1149.5-41.5,149.1-132,191.5-250,260.5-21.6-39.9-75.5,32.5-104.2,10.4l62.5-715.4c-12.9-57.8-99.8-74-104.2-83.3-6.9-14.7,4.3-142.5-17.4-149.3-41.7-13.1,6.4,138.4-13.9,152.8h-1410c-16.4-11.6,13.5-112.4,3.5-135.4-33.1-75.8-31.7,124.1-34.7,132-4.8,12.6-86.5,34.4-97.2,97.2l62.5,715.4c-7.9,14.5-62.7-45.7-69.5-3.5-106.4-63.9-300.3-201.6-319.5-329.9-29-194.2,261.4-956.8,409.8-1094,113-104.4,265.8-101.7,402.9-138.9Z"/>
    <path class="st0" d="M4859.8,3599.8l-694.6,284.8c-31.9,2.8-33,10.2-48.6,13.9-99.6,23.5-298.9,83.3-389,125-13.5,6.2-42.1,6.2-48.6,24.3-10.2,28.4-3.6,129.9,34.7,145.9l-90.3-24.3c72.7-5.8,17.8-61.3,24.3-118.1-75,16.2-145.8,47.5-218.8,69.5-88.6,26.6-177.8,52.8-267.4,76.4-36-78.4-138.6-303.3-69.5-368.1,45.2-42.4,521.9-227.5,625.1-277.8,184.6-90,830.4-480.3,972.4-493.1,334-30.2,392.5,321.1,170.2,541.8Z"/>
    <path class="st5" d="M4151.3,1814.7c-103.4-114.9-276.3-94.8-416.7-132-1.1-.3,1.4-17.3-10.4-20.8-9.2-2.7-12.1,8.7-17.4,6.9-38.6-13.2-76.6-7.7-97.2-52.1-11.3-24.3-20.4-156.3-13.9-180.6,1.5-5.5,59.2-70,69.5-90.3,19.2-38.1,37.5-111.5,55.6-138.9s81.1-66,97.2-97.2c60-116.2-34.8-162.7-79.9-45.1-12.3-104.7-32.4-211.8-100.7-295.2-44.1-53.8-245.8-177.8-309.1-163.2-53.1,12.2-90.3,169.7-121.6,218.8-58.2,91.5-145.1,95.5-118.1,236.2-24.7-10.6-34.9-61.7-66-66-112.8-15.4,3.8,155.3,24.3,184.1,16.4,23,48.9,31.9,55.6,41.7s13.7,64,20.8,76.4c59.8,104.2,107.5,151.3,83.3,284.8-13.9,76.9-79.5,69.2-138.9,86.8-5.5,1.6-8.1-9.6-17.4-6.9-11.7,3.3-9.3,20.5-10.4,20.8-137.1,37.2-289.8,34.5-402.9,138.9-85.7-138.4-31.9-323.7,93.8-416.7,57.3-42.4,149.8-51.5,177.1-128.5,32.5-91.5,9.1-289.5,27.8-402.9,90.7-549.7,813.7-542.7,930.7-13.9,26.5,119.6,10.7,292.9,55.6,402.9,33.3,81.6,156,140.9,208.4,215.3,68.6,97.6,89,232.6,20.8,336.9Z"/>
    <path class="st0" d="M3297,3620.6c29.6,15.7,59.6,28.4,90.3,41.7-67,30.9-273.7,105.7-316,138.9-47.7,37.4-42.5,99.7-31.3,152.8-3-7.4-21.7-47.4-24.3-48.6-98,6.6-197.4,5.9-295.2,13.9,2.7-12.1-.8-9.5-6.9-13.9-4.4-3.2,1-5.1-13.9-6.9-19.1-2.4-49.3-.9-69.5,0l-666.8-243.1c-375.2-302.5-144.3-721.8,316-520.9,280,122.2,574,314,861.3,444.5,37,16.8,129,68,156.3,41.7Z"/>
    <path class="st1" d="M3699.8,3516.5c-104.2,50.8-207.4,97.4-312.6,145.9-30.7-13.3-60.7-26-90.3-41.7-62.1-32.8-124.6-66.2-187.5-97.2l590.4-6.9Z"/>
    <path class="st1" d="M4859.8,3599.8c-177.9,176.5-394.3,254.6-639,291.7-27.5-1.6-21.4-13.8-24.3-13.9-5.2,0-1.7,13.8-6.9,13.9s-7.3-8.4-24.3-6.9l694.6-284.8Z"/>
    <path class="st1" d="M2630.2,3898.5c-34.5,1.6-69.9,9.9-104.2,13.9-.1-20.8-44-36.3-59-41.7-218.8-77.8-305-55.3-503.6-215.3l666.8,243.1Z"/>
    <path class="st1" d="M3623.4,4169.4c-47.7,3.8-142.7-41.7-194.5-48.6,73-21.9,143.8-53.3,218.8-69.5-6.5,56.8,48.4,112.3-24.3,118.1Z"/>
    <path class="st6" d="M3067.7,1668.9c84.7,219.2,571,226.9,639,0,5.3,1.8,8.2-9.7,17.4-6.9,11.8,3.5,9.3,20.5,10.4,20.8-73.4,252.9-604.6,246.5-694.6,0,1.1-.3-1.3-17.5,10.4-20.8,9.3-2.6,11.9,8.6,17.4,6.9Z"/>
    <g>
      <path class="st2" d="M3040,3954c28.5,70.7,52.9,194.3,6.9,260.5-21,30.3-111.5,44.7-152.8,59,.3-17.9-3.9-18.9-20.8-17.4-156.3,13.9-493.8,213.3-569.6-20.8-89.4-276.4,242.6-301.8,416.7-316,97.8-8,197.1-7.3,295.2-13.9,2.6,1.2,21.3,41.3,24.3,48.6Z"/>
      <path class="st5" d="M2640.6,4099.9c30.2-23.4,43.3,93.7,27.8,97.2-30.6,7-36.1-90.8-27.8-97.2Z"/>
      <path class="st5" d="M2779.5,4086c35.4-8.6,25.9,93,20.8,97.2-28.2,23.8-34-94.3-20.8-97.2Z"/>
      <path class="st5" d="M2717,4093c37.1-13.5,28.2,94.8,13.9,97.2-21.5-3.3-27.9-92.1-13.9-97.2Z"/>
      <path class="st5" d="M2578.1,4113.8c21.5-18.1,45.9,69.1,20.8,83.3-21.2,5.6-31-74.8-20.8-83.3Z"/>
    </g>
    <g>
      <path class="st2" d="M4116.6,3898.5c48.2,39.8,142.6,13.8,204.9,27.8,212.7,47.8,240.8,374.5,41.7,409.8-63.2,11.2-350.4-52.2-427.2-69.5-29.8-6.7-166.6-38.1-180.6-52.1-29.4-29.5-58.7-150.5-27.8-191,90.1-41.8,289.3-101.6,389-125Z"/>
      <path class="st4" d="M4133.9,4086c51.6-21.1,6.2,152.9-17.4,86.8,10.8-18.7-.6-79.5,17.4-86.8Z"/>
      <path class="st5" d="M4002,4079.1c16.8-7.2,16.5,10.3,24.3,17.4l-17.4,86.8c-27.7,7.4-20.1-98.6-6.9-104.2Z"/>
      <path class="st5" d="M4071.4,4079.1c27.5-2.9,14.1,109.7-6.9,104.2-21-16.1-11-102.3,6.9-104.2Z"/>
      <path class="st5" d="M4203.4,4093l17.4,17.4c8,31.6-12.9,104.4-27.8,62.5l10.4-79.9Z"/>
    </g>
    <g>
      <path class="st5" d="M2630.2,3898.5c20.2-.9,50.3-2.4,69.5,0l13.9,6.9c6.1,4.4,9.7,1.8,6.9,13.9-174.2,14.2-506.1,39.6-416.7,316,75.7,234.2,413.3,34.8,569.6,20.8,16.9-1.5,21.1-.6,20.8,17.4-99,34.4-441.1,141.3-538.3,125-123.3-20.6-173.6-199.5-159.8-305.6h-944.6l-6.9-27.8h965.5c63.1-139.9,183.8-137.2,316-152.8,34.3-4,69.7-12.3,104.2-13.9Z"/>
      <path class="st7" d="M2713.5,3905.4l-13.9-6.9c14.8,1.9,9.5,3.8,13.9,6.9Z"/>
      <path class="st6" d="M2341.9,3967.9c5.4-.7,14.5-1.8,17.4,3.5-131.9,107.6-125.2,283.9,3.5,392.4-120.4-35.1-165-182.3-121.6-295.2,9.5-24.7,76.4-97.4,100.7-100.7Z"/>
    </g>
    <g>
      <path class="st5" d="M4220.7,3891.5c152.3,8.9,309.4,8.5,371.6,173.6h944.6c11.8-2.5,12.9,9.3,10.4,17.4-14,45.3-852.3-13.1-948.1,10.4-.5,346.3-213.5,303.3-465.4,243.1-58.9-14.1-157.3-31.8-198-69.5,76.8,17.2,364,80.7,427.2,69.5,199.1-35.3,171-362-41.7-409.8-62.3-14-156.7,12-204.9-27.8,15.6-3.7,16.7-11.1,48.6-13.9,17.1-1.5,23,7,24.3,6.9,5.2,0,1.8-14,6.9-13.9s-3.2,12.3,24.3,13.9Z"/>
      <path class="st6" d="M4446.5,3954c175.7,62.4,159,359.7-27.8,395.9,144.6-95.5,137.1-275.8,27.8-395.9Z"/>
    </g>
    <g>
      <path class="st3" d="M3706.8,1668.9c-68,226.9-554.3,219.2-639,0,59.4-17.6,125-9.9,138.9-86.8,24.1-133.5-23.6-180.6-83.3-284.8-7.1-12.4-14.1-66.6-20.8-76.4s-39.1-18.6-55.6-41.7c-20.6-28.8-137.1-199.4-24.3-184.1,31.1,4.2,41.3,55.4,66,66-27.1-140.6,59.9-144.7,118.1-236.2,31.2-49.1,68.4-206.6,121.6-218.8,63.3-14.5,265,109.4,309.1,163.2,68.3,83.4,88.4,190.5,100.7,295.2,45.1-117.6,139.9-71,79.9,45.1-16.1,31.2-88.2,83.5-97.2,97.2-18.1,27.4-36.3,100.8-55.6,138.9-10.2,20.3-68,84.8-69.5,90.3-6.6,24.3,2.6,156.3,13.9,180.6,20.7,44.4,58.6,38.9,97.2,52.1Z"/>
      <path class="st8" d="M3231,1453.6c79.2,76.9,222.7,100.2,312.6,27.8,43.5,2.8-68.3,112.4-159.8,104.2-68.6-6.2-201.7-130.3-152.8-132Z"/>
      <path class="st6" d="M3293.5,1266l225.7,10.4c-47.3,107.3-194.8,108.1-225.7-10.4Z"/>
      <path class="st5" d="M3224,918.7c17.5-2.8,142.8,11.2,114.6,45.1-7.8,9.4-139.6-11.7-163.2-3.5-21.7-11.2,41.6-40.5,48.6-41.7Z"/>
      <path class="st5" d="M3550.5,918.7c18.5-1.6,100,14.6,93.8,38.2l-149.3,17.4c-48.3-19.3,35.1-53.8,55.6-55.6Z"/>
      <path class="st5" d="M3251.8,995.1c44.3-10.1,51.4,83.4,13.9,90.3-44.3,8.2-48.1-82.5-13.9-90.3Z"/>
      <path class="st5" d="M3550.5,995.1c48.8-9.1,48.5,89.4,6.9,90.3-39,.9-41.5-83.8-6.9-90.3Z"/>
      <path class="st8" d="M3432.4,1134.1c33-4.5-.7,106.6-66,59,19.4-6.1,61.6-58.4,66-59Z"/>
    </g>
    <g>
      <path class="st5" d="M4269.4,3224.7c-180.8,105.6-380.9,199.7-569.6,291.7l-590.4,6.9c-179.4-88.5-393.7-176.4-562.6-277.8,6.7-42.3,61.6,18,69.5,3.5l-62.5-715.4c10.7-62.9,92.5-84.6,97.2-97.2,3-7.9,1.6-207.8,34.7-132s-19.9,123.8-3.5,135.4h1410c20.3-14.4-27.8-165.9,13.9-152.8,21.6,6.8,10.5,134.6,17.4,149.3s91.3,25.5,104.2,83.3l-62.5,715.4c28.7,22.1,82.6-50.4,104.2-10.4Z"/>
      <path class="st6" d="M4015.8,2467.6c68.2,1.2,152.3-12.6,184.1,66-18.2,98.8-37.8,697.8-72.9,739.7-9,10.7-236.3,122.4-250,125-100.9,19.4-843.3,24.6-944.6,6.9-15.7-2.7-272.8-122.4-281.3-135.4l-69.5-729.3,45.1-59c461.7,1.1,927.8-22.3,1389.2-13.9Z"/>
      <path class="st6" d="M2994.8,3433.1l802.2,3.5c-17.8,17.3-50.4,21.7-72.9,24.3-128,15-548.8,17.1-673.7,0-11.4-1.6-54.9-9.8-55.6-27.8Z"/>
      <g>
        <path class="st5" d="M3362.9,2842.7c178.8-30.5,192.3,219.1,41.7,229.2-157.1,10.5-169.2-207.5-41.7-229.2Z"/>
        <path class="st6" d="M3369.9,2870.5c141.7-24.9,153.6,201-6.9,166.7-87.5-18.7-72.1-152.8,6.9-166.7Z"/>
      </g>
    </g>
  </g>
</svg>