<?xml version="1.0" encoding="UTF-8"?>
<!DOCTYPE svg PUBLIC "-//W3C//DTD SVG 1.1//EN" "http://www.w3.org/Graphics/SVG/1.1/DTD/svg11.dtd">
<!-- Creator: CorelDRAW 2020 (64-Bit Evaluation Version) -->
<svg xmlns="http://www.w3.org/2000/svg" xml:space="preserve" width="8302px" height="6307px" version="1.1" style="shape-rendering:geometricPrecision; text-rendering:geometricPrecision; image-rendering:optimizeQuality; fill-rule:evenodd; clip-rule:evenodd"
viewBox="0 0 867 658.63"
 xmlns:xlink="http://www.w3.org/1999/xlink"
 xmlns:xodm="http://www.corel.com/coreldraw/odm/2003">
 <defs>
  <style type="text/css">
   <![CDATA[
    .fil14 {fill:none}
    .fil17 {fill:#8A9F65}
    .fil16 {fill:#954B46}
    .fil19 {fill:#EFA410}
    .fil0 {fill:#FCE5DB}
    .fil20 {fill:#FE8F26}
    .fil15 {fill:#FFB57D}
    .fil24 {fill:#FFC593}
    .fil18 {fill:#FFFDFB}
    .fil3 {fill:#FCEEEF;fill-rule:nonzero}
    .fil2 {fill:#FAD9DA;fill-rule:nonzero}
    .fil1 {fill:#F8BF76;fill-rule:nonzero}
    .fil7 {fill:#FBD138;fill-rule:nonzero}
    .fil8 {fill:#EFA410;fill-rule:nonzero}
    .fil13 {fill:#BF6057;fill-rule:nonzero}
    .fil12 {fill:#742424;fill-rule:nonzero}
    .fil11 {fill:#954B46;fill-rule:nonzero}
    .fil4 {fill:#8A9F65;fill-rule:nonzero}
    .fil9 {fill:#879A62;fill-rule:nonzero}
    .fil10 {fill:#79895A;fill-rule:nonzero}
    .fil5 {fill:#758B50;fill-rule:nonzero}
    .fil6 {fill:#687A49;fill-rule:nonzero}
    .fil23 {fill:black;fill-rule:nonzero}
    .fil22 {fill:#8A9F65;fill-rule:nonzero}
    .fil21 {fill:#954B46;fill-rule:nonzero}
    .fil25 {fill:#F8BF76;fill-rule:nonzero}
    .fil27 {fill:#FAD9DA;fill-rule:nonzero}
    .fil26 {fill:#FCEEEF;fill-rule:nonzero}
   ]]>
  </style>
   <clipPath id="id0">
    <path d="M867 0l-867 0 0 658.63 867 0 0 -658.63z"/>
   </clipPath>
 </defs>
 <g id="Layer_x0020_1">
  <metadata id="CorelCorpID_0Corel-Layer"/>
  <polygon class="fil0" points="867,0 0,0 0,658.63 867,658.63 "/>
  <g style="clip-path:url(#id0)">
   <g id="_2309793606704">
    <path id="1" class="fil1" d="M362.26 848.27c0,3.73 3.02,6.75 6.75,6.75l339.1 0c3.72,0 6.74,-3.02 6.74,-6.75 0,-3.72 -3.02,-6.74 -6.74,-6.74l-339.1 0c-3.73,0 -6.75,3.02 -6.75,6.74z"/>
    <path class="fil1" d="M774.26 849.24c0,3.72 1.47,6.74 3.28,6.74l164.96 0c1.82,0 3.29,-3.02 3.29,-6.74 0,-3.73 -1.47,-6.75 -3.29,-6.75l-164.96 0c-1.81,0 -3.28,3.02 -3.28,6.75z"/>
    <path class="fil2" d="M43.12 565.85l352.04 0 0 -315.61c0,-97.21 -78.81,-176.02 -176.02,-176.02l0 0c-97.21,0 -176.02,78.81 -176.02,176.02l0 315.61z"/>
    <path class="fil3" d="M45.57 220.94c6.39,-38.12 25.01,-72.08 51.71,-97.71l297.88 299.72 0 142.9 -106.85 0 -242.74 -344.91z"/>
    <path class="fil1" d="M388.8 559.49l-339.31 0 0 -309.25c0,-93.55 76.1,-169.66 169.65,-169.66 93.55,0 169.66,76.11 169.66,169.66l0 309.25zm-352.04 12.72l364.76 0 0 -321.97c0,-48.71 -18.97,-94.52 -53.42,-128.96 -34.44,-34.45 -80.24,-53.42 -128.96,-53.42 -48.71,0 -94.51,18.97 -128.96,53.42 -34.45,34.44 -53.42,80.25 -53.42,128.96l0 321.97z"/>
    <polygon class="fil1" points="280.66,565.85 274.3,565.85 274.3,84.12 280.66,84.12 "/>
    <polygon class="fil1" points="163.48,565.85 157.12,565.85 157.12,84.3 163.48,84.3 "/>
    <polygon class="fil1" points="280.66,565.85 274.3,565.85 274.3,84.12 280.66,84.12 "/>
    <polygon class="fil1" points="163.48,565.85 157.12,565.85 157.12,84.3 163.48,84.3 "/>
    <polygon class="fil1" points="43.13,253.59 395.16,253.27 395.16,246.91 43.12,247.23 "/>
    <polygon class="fil1" points="43.13,405.04 395.16,404.71 395.16,398.35 43.12,398.67 "/>
    <path class="fil4" d="M-33.61 611.15c0,0 9.99,-7.26 9.99,-12.1 0,-4.85 -10.59,1.51 -10.59,1.51 0,0 6.96,-10.9 4.84,-13.32 -2.12,-2.42 -5.75,1.51 -5.75,1.51 0,0 -1.82,-9.99 -5.75,-11.2 -3.94,-1.21 -6.36,13.93 -6.36,13.93 0,0 -3.33,-5.15 -5.45,-2.73 -2.12,2.42 0.91,11.81 0.91,11.81 0,0 -2.42,-0.91 -4.24,0 0,0 0.3,-6.96 -3.93,-9.08 0,0 -5.15,3.63 -4.85,10.29 0,0 -1.51,-3.03 -3.93,-2.72 0,0 2.72,-9.99 -0.91,-13.63 0,0 -4.54,1.82 -5.75,5.15 0,0 -0.61,-7.27 -3.63,-9.08 -3.03,-1.82 -3.94,7.26 -3.94,7.26 0,0 -7.26,-7.56 -11.5,-6.35 0,0 -3.63,8.17 0.91,15.43 0,0 -5.45,-3.93 -6.97,-1.21 -1.51,2.73 5.76,13.32 8.78,14.84 3.03,1.51 58.12,-0.31 58.12,-0.31z"/>
    <path class="fil5" d="M-27.17 602.34c-3.42,0.53 -6.78,1.47 -9.98,2.79 0.31,-0.72 0.41,-1.53 0.3,-2.3 -0.73,0.14 -1.46,0.28 -2.19,0.42 2.03,-3.05 4.07,-6.1 6.1,-9.15 -1.62,-0.43 -3.47,0.18 -4.5,1.5 1.02,-3.41 -0.21,-7.38 -2.98,-9.61 -3.04,3.31 -3.56,8.15 -3.94,12.63 -0.81,-2.19 -2.41,-4.07 -4.44,-5.23 -1.01,4.2 -0.78,8.69 0.66,12.76 -0.67,-1.32 -2.34,-1.87 -3.79,-1.66 -1.46,0.21 -2.75,1.04 -3.93,1.92 0.78,-1.32 -1.03,-3.19 -2.37,-2.45 0.65,-1.43 0.67,-3.13 0.05,-4.57 -0.22,-0.51 -0.69,-1.07 -1.22,-0.91 -0.37,0.12 -0.56,0.53 -0.68,0.89 -0.61,1.71 -1.02,3.49 -1.25,5.29 -0.51,-1.56 -3.26,-1.47 -3.67,0.12 -1.82,-2.34 -5.71,-2.65 -7.88,-0.63 0.5,-1 0.85,-2.14 0.58,-3.22 -0.27,-1.08 -1.36,-2.02 -2.45,-1.77 2.38,-1.66 3.95,-4.42 4.17,-7.31 -2.3,1.1 -4.37,2.69 -6.04,4.63 0.41,-2.03 0.11,-4.2 -0.83,-6.04 -1.21,1.64 -2.01,3.59 -2.32,5.6 -2.24,-3.52 -5.44,-6.44 -9.16,-8.36 -0.82,3.49 0.03,7.33 2.25,10.14 -0.85,-0.19 -1.69,-0.37 -2.54,-0.55 0.09,2.3 0.88,4.57 2.22,6.44 -2.06,-0.96 -4.2,-1.74 -6.4,-2.33 0.31,5.74 4.35,10.79 9.32,13.66 4.99,2.87 10.81,3.87 16.53,4.4 8.88,0.83 17.94,0.4 26.18,-3.29 5.48,-2.45 13.46,-7.35 14.2,-13.81z"/>
    <g>
     <path class="fil6" d="M703.99 556.99c0,3.52 15.57,6.38 34.78,6.38 19.2,0 34.78,-2.86 34.78,-6.38 0,-3.52 -15.58,-6.37 -34.78,-6.37 -19.21,0 -34.78,2.85 -34.78,6.37z"/>
     <path class="fil1" d="M738.77 518.39c11.88,0 11.88,5.89 11.88,5.89l0 14.97 -23.76 0 0 -14.97c0,0 0,-5.89 11.88,-5.89z"/>
     <path class="fil7" d="M738.41 489.86c8.13,19.35 6.09,27.01 3.43,30.04 -2.02,2.28 -4.85,2.28 -6.86,0 -2.67,-3.03 -4.7,-10.69 3.43,-30.04z"/>
     <path class="fil8" d="M738.41 502.33c4.7,11.21 3.53,15.64 1.98,17.4 -1.17,1.32 -2.8,1.32 -3.97,0 -1.55,-1.76 -2.72,-6.19 1.99,-17.4z"/>
     <path class="fil9" d="M718.99 550.2l0.32 0 0 -2.11 -0.08 0c-1.56,0 -2.83,-1.49 -2.83,-3.33l0 -2.11c0,-1.84 1.27,-3.33 2.83,-3.33l1.58 0c0,-1.39 1.13,-2.52 2.53,-2.52l30.9 0c1.4,0 2.53,1.13 2.53,2.52l1.58 0c1.57,0 2.83,1.49 2.83,3.33l0 2.11c0,1.84 -1.26,3.33 -2.83,3.33l-0.08 0 0 2.11c2.65,0 3.66,3.5 1.39,4.86 -1.82,1.09 -4.54,1.93 -8.58,1.93l-25.52 0c-3.81,0 -6.35,-0.87 -8.04,-1.99 -2.16,-1.43 -1.12,-4.8 1.47,-4.8z"/>
     <path class="fil10" d="M783.85 516.64c0,-17.18 18.41,-61.68 50.01,-71.75 -20.7,19.71 -43.22,63.97 -43.22,72.34l-6.79 -0.59z"/>
     <path class="fil4" d="M790.64 517.23c0,-30.37 -8.28,-83.83 -18.89,-101.1 2.91,29.94 12.1,100.51 12.1,100.51l6.79 0.59z"/>
     <path class="fil5" d="M790.64 517.23l-6.79 -0.59c-3.17,-7.87 -21.98,-52.26 -45.95,-67.61 33.77,7.89 45.11,44.26 52.74,68.2z"/>
     <path class="fil5" d="M843.66 470.1c-29.16,21.93 -50.56,40.35 -54.24,46.62l-7.02 -0.08c7.36,-17.57 41.15,-43.32 61.26,-46.54z"/>
     <path class="fil4" d="M790.64 517.23l-8.24 -0.59c0,0 -17.4,-17.25 -35.71,-25.19 13.18,-4.29 37.85,7.73 43.95,25.78z"/>
     <polygon class="fil11" points="770.54,556.45 802.56,556.45 809.62,513.22 763.48,513.22 "/>
     <polygon class="fil12" points="809.62,513.81 763.48,513.81 763.48,512.63 809.62,512.63 "/>
    </g>
    <polygon class="fil13" points="674.92,555.69 872.73,555.69 872.73,831.48 674.92,633.66 "/>
    <polygon class="fil13" points="872.73,831.48 872.73,848.81 674.92,848.81 674.92,633.66 "/>
    <path class="fil11" d="M857.03 647.72l-167.2 0 0 -72.93 167.2 0 0 72.93zm-171.91 4.71l176.62 0 0 -82.35 -176.62 0 0 82.35z"/>
    <path class="fil11" d="M857.43 738.67l-167.21 0 0 -72.94 167.21 0 0 72.94zm-171.91 4.71l176.62 0 0 -82.36 -176.62 0 0 82.36z"/>
    <path class="fil11" d="M857.43 833.08l-167.21 0 0 -72.94 167.21 0 0 72.94zm-171.91 4.71l176.62 0 0 -82.36 -176.62 0 0 82.36z"/>
    <path class="fil11" d="M769.12 589.7c0,2.6 2.1,4.71 4.7,4.71 2.61,0 4.71,-2.11 4.71,-4.71 0,-2.6 -2.1,-4.71 -4.71,-4.71 -2.6,0 -4.7,2.11 -4.7,4.71z"/>
    <path class="fil11" d="M768.72 686.26c0,2.6 2.11,4.71 4.71,4.71 2.6,0 4.71,-2.11 4.71,-4.71 0,-2.6 -2.11,-4.71 -4.71,-4.71 -2.6,0 -4.71,2.11 -4.71,4.71z"/>
    <path class="fil11" d="M768.72 778.49c0,2.6 2.11,4.71 4.71,4.71 2.6,0 4.71,-2.11 4.71,-4.71 0,-2.6 -2.11,-4.71 -4.71,-4.71 -2.6,0 -4.71,2.11 -4.71,4.71z"/>
   </g>
  </g>
  <polygon class="fil14" points="867,0 0,0 0,658.63 867,658.63 "/>
  <path class="fil15" d="M407.36 297.13c-1.29,18.38 -2.57,36.75 -2.63,49.73 -0.02,5.32 0.16,9.74 0.57,13.46 14.11,0.23 34.31,1 52.8,3.34 10.61,-9.65 22.43,-22.23 32.17,-31.55 2.3,-2.2 4.49,-4.23 6.58,-6.1 -2.68,-9.46 -4.54,-18.83 -5.8,-27.75 -5.06,-35.88 -0.48,-64.75 -0.48,-64.75 20.3,4.12 36.4,-41.63 22.83,-47.21 -13.58,-5.59 -25.53,18.35 -25.53,18.35 -59.66,-29.37 -43.61,-78.77 -43.61,-78.77 0,0 -15.08,19.98 -48.26,11.45 -5.65,10.51 -9.83,21.59 -12.64,32.73 5.08,1.86 11.54,4.86 14.74,8.98 3.83,4.94 -7.36,-1.99 -15.23,-6.99 -12.64,53.2 5.71,107.02 43.03,105.73 12.98,-0.45 28.25,-7.56 45.32,-23.68 0,0 -28.12,35.78 -44.8,37.21 0.03,1.35 0.05,2.72 0.07,4.1 -6.48,0.48 -12.9,1.08 -19.13,1.72zm31 -91.76c-0.59,2.55 -2.69,4.23 -4.68,3.77 -2,-0.47 -3.14,-2.91 -2.54,-5.45 0.59,-2.55 2.69,-4.23 4.68,-3.77 2,0.46 3.13,2.9 2.54,5.45zm16.55 -21.02c-4.91,-0.21 -44.13,1.81 -33.1,-2.42 11.77,-4.51 33.1,2.42 33.1,2.42zm-61.81 8c2,0.46 3.14,2.9 2.54,5.45 -0.59,2.54 -2.69,4.23 -4.68,3.77 -2,-0.47 -3.13,-2.91 -2.54,-5.45 0.59,-2.55 2.69,-4.24 4.68,-3.77z"/>
  <path class="fil15" d="M426.49 295.41c-0.02,-1.38 -0.04,-2.75 -0.07,-4.1 0.03,1.35 0.05,2.72 0.07,4.1zm-0.59 -17.63c12.98,-0.45 28.25,-7.56 45.32,-23.68 0,0 -28.12,35.78 -44.8,37.21 -0.11,-4.92 -0.31,-9.57 -0.52,-13.53zm-43.03 -105.73c-12.64,53.2 5.71,107.02 43.03,105.73 -37.32,1.29 -55.67,-52.53 -43.03,-105.73zm0.49 -1.99c5.08,1.86 11.54,4.86 14.74,8.98 3.83,4.94 -7.36,-1.99 -15.23,-6.99 -3.13,-2 -5.74,-3.68 -6.65,-4.18 0,0 3.14,0.74 7.14,2.19zm55 35.31c-0.59,2.55 -2.69,4.23 -4.68,3.77 -2,-0.47 -3.14,-2.91 -2.54,-5.45 0.59,-2.55 2.69,-4.23 4.68,-3.77 2,0.46 3.13,2.9 2.54,5.45zm52.69 92.89c-5.06,-35.88 -0.48,-64.75 -0.48,-64.75 0,0 -4.58,28.87 0.48,64.75zm5.8 27.75c-2.68,-9.46 -4.54,-18.83 -5.8,-27.75 10.35,2.25 20.06,5.31 29.88,8.66 16.37,5.6 33.04,12.01 45.62,18.36 3.86,1.94 7.33,3.88 10.45,5.81 7.82,-7.99 14.35,-17.87 16.56,-29.59 6.81,-36.12 -25.8,-73.98 -33.96,-89.15 -8.15,-15.18 -0.72,-74.52 -18.98,-94.17 -18.26,-19.65 -38.28,-54.57 -108.41,-38.5 -70.12,16.08 -92.06,78.42 -85.48,104.91 6.58,26.49 8.07,40.65 -7,55.2 -6.79,6.56 -10.85,19.47 -7.78,34.65 8.44,0.6 16.74,1.25 22.03,1.71 9.32,0.82 9.32,1.05 7.75,12.59 -0.54,3.94 -1.26,9.18 -2.03,14.85 14.14,-2.48 30.11,-4.64 47.66,-6.46 -1.29,18.38 -2.57,36.75 -2.63,49.73 -0.02,5.32 0.16,9.74 0.57,13.46 14.11,0.23 34.31,1 52.8,3.34 10.61,-9.65 22.43,-22.23 32.17,-31.55 2.3,-2.2 4.49,-4.23 6.58,-6.1zm-41.94 -141.66c-4.91,-0.21 -44.13,1.81 -33.1,-2.42 11.77,-4.51 33.1,2.42 33.1,2.42zm-59.27 13.45c-0.59,2.54 -2.69,4.23 -4.68,3.77 -2,-0.47 -3.13,-2.91 -2.54,-5.45 0.59,-2.55 2.69,-4.24 4.68,-3.77 2,0.46 3.14,2.9 2.54,5.45z"/>
  <path class="fil16" d="M382.87 172.05c7.87,5 19.06,11.93 15.23,6.99 -3.2,-4.12 -9.66,-7.12 -14.74,-8.98 -4,-1.45 -7.14,-2.19 -7.14,-2.19 0.91,0.5 3.52,2.18 6.65,4.18z"/>
  <path class="fil16" d="M395.64 197.8c0.6,-2.55 -0.54,-4.99 -2.54,-5.45 -1.99,-0.47 -4.09,1.22 -4.68,3.77 -0.59,2.54 0.54,4.98 2.54,5.45 1.99,0.46 4.09,-1.23 4.68,-3.77z"/>
  <path class="fil16" d="M431.14 203.69c-0.6,2.54 0.54,4.98 2.54,5.45 1.99,0.46 4.09,-1.22 4.68,-3.77 0.59,-2.55 -0.54,-4.99 -2.54,-5.45 -1.99,-0.46 -4.09,1.22 -4.68,3.77z"/>
  <path class="fil16" d="M421.81 181.93c-11.03,4.23 28.19,2.21 33.1,2.42 0,0 -21.33,-6.93 -33.1,-2.42z"/>
  <path class="fil16" d="M471.22 254.1c-17.07,16.12 -32.34,23.23 -45.32,23.68 0.21,3.96 0.41,8.61 0.52,13.53 16.68,-1.43 44.8,-37.21 44.8,-37.21z"/>
  <path class="fil15" d="M359.7 303.59c0.77,-5.67 1.49,-10.91 2.03,-14.85 1.57,-11.54 1.57,-11.77 -7.75,-12.59 -5.29,-0.46 -13.59,-1.11 -22.03,-1.71 -6.44,-0.46 -12.95,-0.9 -18.29,-1.2 -12.36,-0.7 -18.42,-0.7 -21.86,-0.35 -3.43,0.35 -4.25,1.05 -4.58,13.24 -0.12,4.31 -0.18,10.05 -0.2,16.2 0.99,1.62 1.7,3.57 1.75,5.47 0.02,0.51 -0.01,1.01 -0.11,1.53 1.57,1.96 3.14,3.91 4.11,6.52 0.96,2.61 1.31,5.87 -0.27,9.31 -1.12,2.45 -3.21,4.98 -5.4,7.06 0.01,0.56 0.01,1.11 0.01,1.63 0.02,3.1 0.04,5.4 0.14,7.09 2.95,1.13 5.58,2.2 7.53,3.13 2.03,0.97 3.33,1.79 4.18,2.56 4.92,0.35 11.14,0.72 17.51,0.86 1.27,0.03 2.54,0.05 3.81,0.06 8.76,0.07 17.36,-0.23 22.86,-0.54 6.29,-0.35 8.51,-0.7 9.62,-0.87 1.1,-0.18 1.1,-0.18 2.68,-11.6 1.03,-7.53 2.75,-20.01 4.26,-30.95z"/>
  <path class="fil15" d="M320.28 347.55c-1.27,-0.01 -2.54,-0.03 -3.81,-0.06 1.27,0.03 2.54,0.05 3.81,0.06zm-25.5 -3.48c2.03,0.97 3.33,1.79 4.18,2.56 -0.85,-0.77 -2.15,-1.59 -4.18,-2.56zm-7.53 -3.13c2.95,1.13 5.58,2.2 7.53,3.13 -1.95,-0.93 -4.58,-2 -7.53,-3.13zm-0.15 -8.72c0.01,0.56 0.01,1.11 0.01,1.63 0.02,3.1 0.04,5.4 0.14,7.09 -2.66,-1.02 -5.59,-2.09 -8.51,-3.16 1.77,-0.75 3.61,-1.68 5.72,-3.3 0.86,-0.65 1.76,-1.42 2.64,-2.26zm5.4 -7.06c-1.12,2.45 -3.21,4.98 -5.4,7.06 2.19,-2.08 4.28,-4.61 5.4,-7.06zm-3.73 -17.36c0.02,0.51 -0.01,1.01 -0.11,1.53 0.1,-0.52 0.13,-1.02 0.11,-1.53zm-1.75 -5.47c0.99,1.62 1.7,3.57 1.75,5.47 -0.05,-1.9 -0.76,-3.85 -1.75,-5.47zm36.6 108.78c-0.64,-14.8 0.29,-29.14 -0.29,-40.96 -0.42,-8.53 -1.63,-15.75 -3.05,-22.6 8.76,0.07 17.36,-0.23 22.86,-0.54 6.29,-0.35 8.51,-0.7 9.62,-0.87 1.1,-0.18 1.1,-0.18 2.68,-11.6 1.03,-7.53 2.75,-20.01 4.26,-30.95 0.77,-5.67 1.49,-10.91 2.03,-14.85 1.57,-11.54 1.57,-11.77 -7.75,-12.59 -5.29,-0.46 -13.59,-1.11 -22.03,-1.71 -6.44,-0.46 -12.95,-0.9 -18.29,-1.2 -12.36,-0.7 -18.42,-0.7 -21.86,-0.35 -3.43,0.35 -4.25,1.05 -4.58,13.24 -0.12,4.31 -0.18,10.05 -0.2,16.2 -0.07,-0.12 -0.15,-0.24 -0.23,-0.36 -1.1,-1.69 -2.5,-2.97 -3.84,-3.21 -1.34,-0.23 -2.62,0.59 -6.53,4.43 -3.9,3.85 -10.43,10.72 -13.75,15.39 -3.32,4.66 -3.44,7.1 -2.51,9.2 0.94,2.1 2.92,3.85 3.91,4.72 0.99,0.88 0.99,0.88 0.64,2.04 -0.35,1.17 -1.05,3.5 -0.64,5.54 0.41,2.04 1.92,3.79 2.68,4.72 0.76,0.93 0.76,1.05 0.58,1.51 -0.17,0.47 -0.52,1.28 -0.64,2.97 -0.12,1.69 0,4.26 0.58,6.65 0.59,2.39 1.63,4.6 4.55,8.56 2.91,3.97 7.69,9.68 11.59,13.23 3.91,3.56 6.94,4.95 8.69,7.23 1.74,2.27 2.21,5.42 1.05,25.4 -1.17,19.99 -3.97,56.82 -3.44,81.87 0.52,25.06 4.37,38.34 9.61,47.03 5.25,8.68 11.89,12.76 18.3,13.05 6.41,0.29 12.59,-3.2 17.13,-8.74 1.16,-1.41 2.21,-2.96 3.16,-4.65 2.74,-4.93 4.52,-11.06 5.17,-18.66 0.88,-10.2 -0.29,-23.02 -3.03,-34.09 -2.74,-11.07 -7.05,-20.39 -10.31,-32.69 -0.86,-3.24 -1.65,-6.69 -2.36,-10.29 -1.96,-10.03 -3.29,-21.18 -3.76,-32.07z"/>
  <path class="fil15" d="M287.25 340.94c-0.1,-1.69 -0.12,-3.99 -0.14,-7.09 0,-0.52 0,-1.07 -0.01,-1.63 -0.88,0.84 -1.78,1.61 -2.64,2.26 -2.11,1.62 -3.95,2.55 -5.72,3.3 2.92,1.07 5.85,2.14 8.51,3.16z"/>
  <path class="fil15" d="M320.28 347.55c1.42,6.85 2.63,14.07 3.05,22.6 0.58,11.82 -0.35,26.16 0.29,40.96 0.47,10.89 1.8,22.04 3.76,32.07 0.71,3.6 1.5,7.05 2.36,10.29 3.26,12.3 7.57,21.62 10.31,32.69 2.74,11.07 3.91,23.89 3.03,34.09 -0.65,7.6 -2.43,13.73 -5.17,18.66 0.54,10.27 1.08,20.54 1.29,31.1 0.04,2.12 0.07,4.26 0.09,6.4 1.87,-1.05 4.59,-1.27 11.22,-1.81 11.23,-0.9 33.69,-2.72 62.11,-3.94 28.42,-1.22 62.81,-1.85 97.2,-2.49 -3.64,-5.07 -6.05,-9.35 -8.07,-12.02 -2.68,-3.56 -4.66,-4.26 -8.21,-4.67 -3.56,-0.4 -8.68,-0.52 -11.95,-4.48 -3.26,-3.96 -4.66,-11.77 -6.17,-16.49 -1.52,-4.72 -3.15,-6.35 -10.03,-11.6 -6.87,-5.24 -18.99,-14.1 -24.88,-19.58 -1.94,-1.8 -3.2,-3.24 -3.78,-4.27l-65.39 -1.56 10.14 -115.37 3.97 0.07 1.63 -17.9c0,0 7.28,-0.15 18.22,0.02 -0.41,-3.72 -0.59,-8.14 -0.57,-13.46 0.06,-12.98 1.34,-31.35 2.63,-49.73 -17.55,1.82 -33.52,3.98 -47.66,6.46 -1.51,10.94 -3.23,23.42 -4.26,30.95 -1.58,11.42 -1.58,11.42 -2.68,11.6 -1.11,0.17 -3.33,0.52 -9.62,0.87 -5.5,0.31 -14.1,0.61 -22.86,0.54z"/>
  <path class="fil17" d="M381.48 378.13l-10.14 115.37 65.39 1.56c-1.19,-2.1 0.44,-2.52 4.89,-0.91 0.83,0.29 1.76,0.66 2.76,1.09l13.15 0.31c-4.8,-4.47 -9.8,-9.28 -13.17,-13 -6.24,-6.88 -6.94,-10.02 -5.42,-11.89 1.51,-1.86 5.24,-2.45 14.39,2.97 9.15,5.42 23.72,16.84 31,22.55l5.88 -0.41c-0.61,-2.3 -1.47,-5.03 -2.67,-7.51 -1.14,-2.34 -2.58,-4.45 -4.27,-6.71 -1.25,-1.67 -2.63,-3.42 -4.12,-5.41 -3.5,-4.66 -7.58,-10.61 -9.33,-15.33 -1.75,-4.72 -1.16,-8.21 -0.41,-10.13 0.76,-1.93 1.69,-2.28 6.94,2.97 2.23,2.23 5.25,5.48 8.54,9.04 4.45,4.8 9.41,10.17 13.66,14.38 4.87,4.84 8.81,8.15 11.68,10.41 -0.61,-6.27 -1.22,-12.53 -3.28,-19.4 -2.05,-6.86 -5.54,-14.32 -6.48,-18.98 -0.93,-4.66 0.7,-6.52 1.87,-7.28 1.16,-0.76 1.86,-0.41 4.78,4.43 0.42,0.7 0.89,1.51 1.4,2.38 2.97,5.14 7.16,12.88 10.19,19.29 3.02,6.4 4.91,11.48 5.94,17.23l10.12 -4.44 56.84 -24.97 7.71 -52.45 8.02 -54.53 -5.43 1.61 -90.02 26.71 -18.53 3.15 -107.91 -2.03 -3.97 -0.07z"/>
  <path class="fil18" d="M385.45 378.2l107.91 2.03 18.53 -3.15 90.02 -26.71 0.54 -9.65c0,0 -3.66,1.24 -9.54,3.24 -0.04,0.01 -0.08,0.03 -0.12,0.04l-0.01 -0.19 -0.47 -9.04c-1.94,0.54 -4.25,1.28 -6.85,2.2 -0.63,0.23 -1.28,0.46 -1.95,0.7l0.1 -2.11 0.31 -6.38c-1.99,0.74 -4.04,1.55 -6.13,2.41 -34.3,14.08 -80.58,42.34 -80.58,42.34 -8.37,-5.04 -23.1,-8.25 -39.11,-10.27 -18.49,-2.34 -38.69,-3.11 -52.8,-3.34 -10.94,-0.17 -18.22,-0.02 -18.22,-0.02l-1.63 17.9z"/>
  <path class="fil19" d="M458.1 363.66c16.01,2.02 30.74,5.23 39.11,10.27 0,0 46.28,-28.26 80.58,-42.34 -0.26,-0.17 -0.53,-0.33 -0.79,-0.5 -3.12,-1.93 -6.59,-3.87 -10.45,-5.81 -12.58,-6.35 -29.25,-12.76 -45.62,-18.36 -7.41,5.39 -14.81,10.78 -24.08,19.09 -2.09,1.87 -4.28,3.9 -6.58,6.1 -9.74,9.32 -21.56,21.9 -32.17,31.55z"/>
  <path class="fil15" d="M496.85 326.01c9.27,-8.31 16.67,-13.7 24.08,-19.09 -9.82,-3.35 -19.53,-6.41 -29.88,-8.66 1.26,8.92 3.12,18.29 5.8,27.75z"/>
  <path class="fil19" d="M591.61 455.74l-56.84 24.97c0.09,8 0.22,15.52 0.45,21.83 0.36,10.19 0.97,17.18 1.59,24.17 1.12,0.89 2.35,1.8 3.7,2.69 5.76,3.85 13.57,7.57 19.75,10.31 6.18,2.74 10.72,4.49 14.73,8.62 4,4.14 7.47,10.66 9.02,14.59 1.56,3.93 1.2,5.27 0.85,6.61 2.48,-8.81 4.43,-19.82 5.99,-31.86 2.16,-16.66 3.56,-35.31 5.24,-65.08 1.19,-20.93 2.53,-47.36 3.23,-69.3l-7.71 52.45z"/>
  <path class="fil19" d="M501.75 556.15c2.02,2.67 4.43,6.95 8.07,12.02 -3.64,-5.07 -6.05,-9.35 -8.07,-12.02zm-65.02 -61.09c0.58,1.03 1.84,2.47 3.78,4.27 -1.94,-1.8 -3.2,-3.24 -3.78,-4.27zm89.21 13.94c-0.18,-5.12 0.06,-13.63 -0.82,-20.74 -0.13,-1.06 -0.29,-2.1 -0.47,-3.11 -1.03,-5.75 -2.92,-10.83 -5.94,-17.23 -3.03,-6.41 -7.22,-14.15 -10.19,-19.29 -0.51,-0.87 -0.98,-1.68 -1.4,-2.38 -2.92,-4.84 -3.62,-5.19 -4.78,-4.43 -1.17,0.76 -2.8,2.62 -1.87,7.28 0.94,4.66 4.43,12.12 6.48,18.98 2.06,6.87 2.67,13.13 3.28,19.4 -2.87,-2.26 -6.81,-5.57 -11.68,-10.41 -4.25,-4.21 -9.21,-9.58 -13.66,-14.38 -3.29,-3.56 -6.31,-6.81 -8.54,-9.04 -5.25,-5.25 -6.18,-4.9 -6.94,-2.97 -0.75,1.92 -1.34,5.41 0.41,10.13 1.75,4.72 5.83,10.67 9.33,15.33 1.49,1.99 2.87,3.74 4.12,5.41 1.69,2.26 3.13,4.37 4.27,6.71 1.2,2.48 2.06,5.21 2.67,7.51 0.39,1.49 0.68,2.8 0.88,3.74 0.53,2.39 0.53,2.39 -6.76,-3.33 -7.28,-5.71 -21.85,-17.13 -31,-22.55 -9.15,-5.42 -12.88,-4.83 -14.39,-2.97 -1.52,1.87 -0.82,5.01 5.42,11.89 3.37,3.72 8.37,8.53 13.17,13 4.08,3.78 8.02,7.32 10.72,9.73 5.88,5.24 5.88,5.12 -0.58,1.63 -5.66,-3.06 -16.27,-8.71 -23.29,-11.67 -1,-0.43 -1.93,-0.8 -2.76,-1.09 -4.45,-1.61 -6.08,-1.19 -4.89,0.91l-65.39 -1.56 10.14 -115.37 3.97 0.07 1.63 -17.9c0,0 7.28,-0.15 18.22,0.02 -0.41,-3.72 -0.59,-8.14 -0.57,-13.46 0.06,-12.98 1.34,-31.35 2.63,-49.73 -17.55,1.82 -33.52,3.98 -47.66,6.46 -1.51,10.94 -3.23,23.42 -4.26,30.95 -1.58,11.42 -1.58,11.42 -2.68,11.6 -1.11,0.17 -3.33,0.52 -9.62,0.87 -5.5,0.31 -14.1,0.61 -22.86,0.54 1.42,6.85 2.63,14.07 3.05,22.6 0.58,11.82 -0.35,26.16 0.29,40.96 0.47,10.89 1.8,22.04 3.76,32.07 0.71,3.6 1.5,7.05 2.36,10.29 3.26,12.3 7.57,21.62 10.31,32.69 2.74,11.07 3.91,23.89 3.03,34.09 -0.65,7.6 -2.43,13.73 -5.17,18.66 0.54,10.27 1.08,20.54 1.29,31.1 0.04,2.12 0.07,4.26 0.09,6.4 1.87,-1.05 4.59,-1.27 11.22,-1.81 11.23,-0.9 33.69,-2.72 62.11,-3.94 28.42,-1.22 62.81,-1.85 97.2,-2.49 1.21,1.69 2.55,3.46 4.06,5.28 2.1,2.56 4.54,5.22 7.21,7.79 5,4.81 10.85,9.27 16.97,11.97 9.38,4.13 19.4,4.13 26.98,1.86 7.57,-2.27 12.7,-6.82 16.72,-16.43 1.12,-2.67 2.15,-5.73 3.1,-9.11 0.35,-1.34 0.71,-2.68 -0.85,-6.61 -1.55,-3.93 -5.02,-10.45 -9.02,-14.59 -4.01,-4.13 -8.55,-5.88 -14.73,-8.62 -6.18,-2.74 -13.99,-6.46 -19.75,-10.31 -1.35,-0.89 -2.58,-1.8 -3.7,-2.69 -3.72,-2.94 -6.3,-5.78 -7.96,-7.97 -2.16,-2.86 -2.74,-4.61 -2.91,-9.74z"/>
  <path class="fil19" d="M528.85 518.74c1.66,2.19 4.24,5.03 7.96,7.97 -0.62,-6.99 -1.23,-13.98 -1.59,-24.17 -0.23,-6.31 -0.36,-13.83 -0.45,-21.83l-10.12 4.44c0.18,1.01 0.34,2.05 0.47,3.11 0.88,7.11 0.64,15.62 0.82,20.74 0.17,5.13 0.75,6.88 2.91,9.74z"/>
  <path class="fil20" d="M491.09 499.51c-0.2,-0.94 -0.49,-2.25 -0.88,-3.74l-5.88 0.41c7.29,5.72 7.29,5.72 6.76,3.33z"/>
  <path class="fil20" d="M468.25 505.28c-2.7,-2.41 -6.64,-5.95 -10.72,-9.73l-13.15 -0.31c7.02,2.96 17.63,8.61 23.29,11.67 6.46,3.49 6.46,3.61 0.58,-1.63z"/>
  <path class="fil16" d="M509.82 568.17c-34.39,0.64 -68.78,1.27 -97.2,2.49 -28.42,1.22 -50.88,3.04 -62.11,3.94 -6.63,0.54 -9.35,0.76 -11.22,1.81 -1.3,0.74 -2.19,1.87 -3.7,3.79 -3.68,4.68 -11.06,14.06 -16.96,27.96 -5.84,13.74 -10.24,31.91 -13.49,49.95l236.25 0c-0.94,-6.58 -2.12,-12.85 -3.8,-18.52 -3.32,-11.25 -8.56,-20.1 -11.64,-29.43 -3.07,-9.33 -3.97,-19.12 -4.86,-28.92 -2.67,-2.57 -5.11,-5.23 -7.21,-7.79 -1.51,-1.82 -2.85,-3.59 -4.06,-5.28z"/>
  <path class="fil21" d="M288.25 309.66c-0.18,-0.22 -0.14,-0.55 0.08,-0.74 0.23,-0.18 0.56,-0.14 0.74,0.08 1.6,1.99 3.2,3.98 4.19,6.67 0.54,1.47 0.89,3.14 0.84,4.95 -0.04,1.51 -0.37,3.12 -1.12,4.76 -0.75,1.63 -1.91,3.3 -3.24,4.84 -1.55,1.8 -3.33,3.44 -4.96,4.68 -3.03,2.32 -5.51,3.26 -8,4.21 -0.19,0.07 -0.4,0.02 -0.54,-0.11l-0.01 0c-0.04,-0.04 -0.07,-0.09 -0.1,-0.15 -0.03,-0.04 -0.04,-0.09 -0.05,-0.15 -0.04,-0.24 0.09,-0.48 0.33,-0.57 2.41,-0.92 4.83,-1.84 7.74,-4.06 1.57,-1.21 3.3,-2.8 4.8,-4.53 1.27,-1.48 2.38,-3.06 3.08,-4.6 0.69,-1.5 0.99,-2.97 1.03,-4.35 0.05,-1.65 -0.28,-3.2 -0.79,-4.56 -0.93,-2.53 -2.47,-4.45 -4.02,-6.37z"/>
  <path class="fil21" d="M278.57 338.27c-0.28,-0.1 -0.42,-0.4 -0.32,-0.67 0.09,-0.27 0.39,-0.41 0.67,-0.32l0.01 0.01c6.17,2.26 12.34,4.53 16.08,6.31 1.9,0.9 3.18,1.69 4.07,2.44 0.93,0.78 1.43,1.53 1.72,2.3 0.3,0.81 0.38,1.65 0.23,2.42 -0.15,0.77 -0.52,1.47 -1.13,2 -0.59,0.54 -1.4,0.9 -2.66,1.11 -1.18,0.2 -2.78,0.28 -5.03,0.25 -2.24,-0.03 -5.1,-0.16 -8.27,-0.34 -3.22,-0.19 -6.7,-0.42 -10.18,-0.65 -0.28,-0.02 -0.5,-0.27 -0.48,-0.56 0.02,-0.29 0.27,-0.51 0.55,-0.49 3.52,0.24 7.03,0.47 10.17,0.65 3.18,0.18 6.03,0.31 8.22,0.34 2.18,0.03 3.72,-0.04 4.84,-0.23 1.05,-0.18 1.7,-0.46 2.15,-0.86 0.42,-0.38 0.68,-0.87 0.79,-1.42 0.12,-0.58 0.06,-1.23 -0.18,-1.85 -0.23,-0.62 -0.64,-1.22 -1.41,-1.87 -0.81,-0.69 -2.03,-1.42 -3.85,-2.29 -3.7,-1.77 -9.85,-4.02 -15.99,-6.28z"/>
  <path class="fil21" d="M276.63 352.53c0.16,-0.24 0.48,-0.3 0.72,-0.14 0.24,0.16 0.31,0.48 0.15,0.72l-2.92 4.33c-0.16,0.24 -0.48,0.31 -0.72,0.15 -0.24,-0.17 -0.31,-0.49 -0.15,-0.73l2.92 -4.33z"/>
  <path class="fil21" d="M295.86 354c-0.28,-0.08 -0.44,-0.37 -0.36,-0.65 0.08,-0.27 0.37,-0.43 0.65,-0.35 1.78,0.52 3.56,1.04 5.23,1.68 1.7,0.65 3.26,1.42 4.58,2.43 1.32,1.01 2.36,2.26 3.28,3.61 0.9,1.34 1.67,2.79 2.43,4.23 0.14,0.25 0.04,0.57 -0.22,0.71 -0.25,0.13 -0.57,0.03 -0.7,-0.22 -0.76,-1.42 -1.51,-2.84 -2.38,-4.13 -0.86,-1.28 -1.84,-2.44 -3.05,-3.37 -1.22,-0.94 -2.7,-1.66 -4.31,-2.28 -1.62,-0.63 -3.39,-1.14 -5.15,-1.66z"/>
  <path class="fil22" d="M286.58 332.22c0,-0.29 0.23,-0.52 0.52,-0.52 0.29,0 0.53,0.23 0.53,0.52l0.01 1.63c0.01,1.54 0.02,2.89 0.03,4.06 0.02,1.16 0.05,2.15 0.1,3 0.01,0.29 -0.21,0.54 -0.49,0.55 -0.29,0.02 -0.54,-0.2 -0.56,-0.49 -0.04,-0.84 -0.07,-1.85 -0.09,-3.04 -0.02,-1.17 -0.03,-2.52 -0.04,-4.08l-0.01 -1.63zm12.34 14.93c-0.29,-0.02 -0.5,-0.27 -0.48,-0.56 0.02,-0.29 0.27,-0.51 0.56,-0.49 2.47,0.18 5.26,0.36 8.2,0.52 2.97,0.15 6.12,0.28 9.28,0.35 4.39,0.09 8.84,0.08 12.99,0.01 5.29,-0.1 10.11,-0.29 13.64,-0.49 3.14,-0.18 5.26,-0.35 6.73,-0.5 1.48,-0.15 2.29,-0.28 2.84,-0.37 0.72,-0.11 0.72,-0.11 2.24,-11.15l0.01 -0.12c1.58,-11.46 4.71,-34.18 6.28,-45.68 0.77,-5.65 1.16,-8.53 0.28,-9.97 -0.83,-1.38 -3.07,-1.63 -7.56,-2.02 -5.03,-0.44 -12.73,-1.05 -20.67,-1.62 -6.88,-0.5 -13.94,-0.97 -19.63,-1.3 -6.18,-0.35 -10.78,-0.52 -14.25,-0.56 -3.46,-0.05 -5.82,0.04 -7.52,0.21 -1.52,0.16 -2.46,0.38 -3.02,1.85 -0.66,1.68 -0.93,4.85 -1.1,10.88 -0.06,2.16 -0.1,4.67 -0.13,7.41 -0.03,2.74 -0.05,5.71 -0.06,8.78 0,0.29 -0.24,0.52 -0.53,0.52 -0.28,0 -0.52,-0.23 -0.52,-0.52 0.01,-3.07 0.03,-6.05 0.06,-8.79 0.03,-2.75 0.08,-5.27 0.14,-7.42 0.16,-6.16 0.46,-9.43 1.16,-11.24 0.78,-2.01 1.97,-2.31 3.89,-2.51 1.74,-0.18 4.13,-0.26 7.64,-0.22 3.51,0.04 8.12,0.22 14.29,0.57 5.75,0.32 12.81,0.8 19.65,1.29 8,0.58 15.71,1.19 20.69,1.62 4.84,0.42 7.27,0.7 8.37,2.53 1.06,1.75 0.66,4.76 -0.14,10.65 -1.57,11.5 -4.7,34.22 -6.28,45.68l-0.02 0.12c-1.62,11.81 -1.62,11.81 -3.11,12.04 -0.57,0.09 -1.41,0.23 -2.89,0.38 -1.49,0.15 -3.63,0.33 -6.78,0.5 -3.53,0.2 -8.35,0.4 -13.68,0.49 -4.17,0.08 -8.63,0.09 -13.03,-0.01 -3.2,-0.07 -6.35,-0.2 -9.31,-0.35 -3,-0.16 -5.78,-0.34 -8.23,-0.51z"/>
  <path class="fil21" d="M341.82 378.25c-0.07,-0.28 0.11,-0.57 0.39,-0.63 0.28,-0.07 0.56,0.11 0.63,0.39 0.81,3.49 1.63,6.98 2.32,10.22 0.69,3.23 1.27,6.18 1.59,8.59 0.33,2.45 0.4,4.33 0.02,6.3 -0.37,1.95 -1.19,3.96 -2.64,6.66 -1.29,2.4 -3.09,5.34 -4.96,8.41 -2.28,3.74 -4.67,7.67 -6.39,10.99 -3.09,5.99 -3.98,10.03 -4.87,14.06 -0.04,0.26 -0.26,0.46 -0.53,0.46 -0.28,0 -0.52,-0.23 -0.52,-0.52l0.01 -0.11c0.91,-4.12 1.82,-8.24 4.98,-14.37 1.74,-3.35 4.14,-7.29 6.43,-11.05 1.86,-3.06 3.65,-5.99 4.92,-8.36 1.41,-2.6 2.19,-4.53 2.54,-6.37 0.36,-1.84 0.28,-3.63 -0.03,-5.96 -0.32,-2.37 -0.88,-5.3 -1.57,-8.51 -0.69,-3.2 -1.51,-6.7 -2.32,-10.2z"/>
  <path class="fil21" d="M520.57 581.29c-0.03,-0.29 0.18,-0.55 0.47,-0.57 0.29,-0.03 0.54,0.18 0.57,0.47 0.44,4.88 0.89,9.76 1.61,14.61 0.72,4.81 1.71,9.56 3.23,14.2 1.36,4.12 3.15,8.15 5,12.35 2.34,5.27 4.79,10.8 6.64,17.09 0.84,2.85 1.56,5.85 2.19,8.97 0.63,3.12 1.16,6.34 1.63,9.63 0.04,0.28 -0.16,0.55 -0.44,0.59 -0.29,0.04 -0.55,-0.16 -0.59,-0.45 -0.48,-3.29 -1.01,-6.49 -1.63,-9.57 -0.61,-3.08 -1.33,-6.05 -2.16,-8.87 -1.83,-6.22 -4.27,-11.72 -6.6,-16.97 -1.86,-4.22 -3.66,-8.29 -5.03,-12.45 -1.55,-4.69 -2.55,-9.5 -3.27,-14.37 -0.72,-4.83 -1.17,-9.75 -1.62,-14.66z"/>
  <path class="fil21" d="M537.33 526.67c0.02,0.29 -0.2,0.55 -0.48,0.57 -0.29,0.02 -0.54,-0.2 -0.57,-0.49l0 -0.01c-0.61,-6.97 -1.22,-13.95 -1.59,-24.19 -0.11,-3.14 -0.2,-6.6 -0.27,-10.28 -0.07,-3.67 -0.13,-7.55 -0.18,-11.55 0,-0.29 0.23,-0.53 0.52,-0.53 0.29,0 0.53,0.23 0.53,0.51 0.05,4 0.1,7.87 0.18,11.55 0.07,3.65 0.16,7.11 0.27,10.27 0.36,10.14 0.98,17.14 1.59,24.13l0 0.02z"/>
  <path class="fil21" d="M502.68 374.05c-0.26,0.13 -0.57,0.02 -0.7,-0.24 -0.12,-0.26 -0.01,-0.57 0.25,-0.7 0.19,-0.09 68.21,-32.88 89.94,-38.84 0.28,-0.07 0.57,0.09 0.64,0.37l0.02 0.11 -1.01 0.71c-22.27,6.36 -88.94,38.5 -89.14,38.59z"/>
  <path class="fil21" d="M509.6 372.68c-0.27,0.09 -0.57,-0.06 -0.65,-0.34 -0.09,-0.28 0.07,-0.57 0.34,-0.65 5.58,-1.75 92.74,-31.38 92.99,-31.47 0.27,-0.09 0.57,0.06 0.66,0.33 0.03,0.07 0.04,0.15 0.03,0.22l-1.09 0.69c-8.38,2.85 -86.96,29.56 -92.28,31.22z"/>
  <path class="fil21" d="M491.09 384.38c0.03,-0.29 0.28,-0.5 0.57,-0.48 0.29,0.02 0.5,0.28 0.48,0.56l-6.73 78.27c-0.02,0.29 -0.27,0.5 -0.56,0.48 -0.29,-0.03 -0.5,-0.28 -0.48,-0.57l6.72 -78.26zm-8.34 97.13c0.02,-0.29 0.28,-0.5 0.56,-0.48 0.29,0.03 0.51,0.28 0.48,0.57l-0.39 4.61c-0.03,0.28 -0.28,0.5 -0.57,0.47 -0.29,-0.02 -0.5,-0.27 -0.48,-0.56l0.4 -4.61z"/>
  <path class="fil21" d="M508.58 385.54c-0.04,-0.28 0.16,-0.55 0.44,-0.59 0.29,-0.04 0.55,0.16 0.6,0.45 0.14,0.98 0.06,12.15 -0.09,25.41 -0.14,13.24 -0.35,28.55 -0.49,37.83 0,0.29 -0.24,0.52 -0.52,0.52 -0.29,-0.01 -0.52,-0.24 -0.52,-0.53 0.13,-9.29 0.35,-24.61 0.49,-37.83 0.14,-13.2 0.22,-24.32 0.09,-25.26z"/>
  <path class="fil21" d="M395.54 137.08c0.14,-0.25 0.46,-0.35 0.71,-0.21 0.25,0.14 0.35,0.45 0.21,0.71 -2.77,5.15 -5.18,10.44 -7.25,15.8 -2.14,5.54 -3.92,11.17 -5.34,16.81 -0.07,0.28 -0.36,0.45 -0.64,0.38 -0.28,-0.07 -0.45,-0.35 -0.38,-0.63 1.43,-5.68 3.22,-11.35 5.38,-16.94 2.09,-5.41 4.52,-10.73 7.31,-15.92zm-13.18 34.85c0.07,-0.28 0.35,-0.46 0.64,-0.39 0.28,0.07 0.45,0.35 0.38,0.63 -6.37,26.85 -4.84,53.84 3.06,73.77 4.1,10.33 9.9,18.75 17.18,24.25 7.26,5.48 16.01,8.07 26.03,6.76 12.02,-1.58 25.87,-8.74 41.21,-23.23 0.21,-0.2 0.54,-0.19 0.74,0.02 0.2,0.21 0.19,0.54 -0.02,0.74 -15.51,14.65 -29.57,21.9 -41.8,23.5 -10.31,1.35 -19.31,-1.31 -26.79,-6.96 -7.44,-5.62 -13.36,-14.19 -17.52,-24.69 -7.98,-20.12 -9.53,-47.35 -3.11,-74.4z"/>
  <path class="fil21" d="M395.87 137.84c-0.28,-0.08 -0.45,-0.36 -0.37,-0.64 0.07,-0.28 0.35,-0.45 0.63,-0.38 32.84,8.45 47.67,-11.2 47.72,-11.26 0.17,-0.22 0.5,-0.27 0.73,-0.09 0.18,0.14 0.25,0.38 0.18,0.58 -0.25,0.76 -15.44,48.89 42.89,77.9 1.76,-3.34 13.05,-23.44 25.94,-18.14 3.79,1.56 5.4,5.96 5.35,11.52 -0.05,3.89 -0.91,8.37 -2.41,12.82 -1.51,4.45 -3.66,8.89 -6.29,12.72 -5.04,7.33 -11.83,12.45 -19.23,11.25 -0.75,5.16 -6.23,47.32 6.34,91.75 0.08,0.28 -0.08,0.57 -0.36,0.64 -0.28,0.08 -0.57,-0.08 -0.65,-0.36 -13.45,-47.58 -6.31,-92.59 -6.29,-92.72l0.01 -0.02c0.05,-0.28 0.33,-0.47 0.61,-0.41 7.13,1.44 13.77,-3.53 18.7,-10.72 2.58,-3.75 4.69,-8.1 6.17,-12.47 1.47,-4.35 2.31,-8.71 2.35,-12.49 0.06,-5.14 -1.37,-9.17 -4.69,-10.54 -13.13,-5.4 -24.83,18.04 -24.86,18.1 -0.13,0.26 -0.44,0.36 -0.7,0.24 -52.75,-25.97 -46.72,-67.44 -44.44,-77.26 -4.56,4.66 -19.76,17.07 -47.33,9.98z"/>
  <path class="fil21" d="M577.37 331.46c-0.2,0.2 -0.53,0.21 -0.74,0.01 -0.21,-0.21 -0.21,-0.54 -0.01,-0.75 4.13,-4.22 7.91,-8.97 10.86,-14.24 2.58,-4.63 4.54,-9.66 5.57,-15.08 5.42,-28.75 -14.39,-58.72 -26.65,-77.26 -3.05,-4.61 -5.63,-8.52 -7.26,-11.54 -3.27,-6.09 -4.06,-18.98 -4.96,-33.62 -1.38,-22.3 -3.01,-48.67 -13.94,-60.44 -1.98,-2.12 -3.99,-4.45 -6.08,-6.87 -17.04,-19.67 -39.62,-45.74 -101.83,-31.48 -0.82,0.19 -1.62,0.38 -2.42,0.58 -33.71,8.38 -55.93,27.61 -68.95,48.04 -13.01,20.41 -16.86,41.99 -13.85,55.11l0.13 0.55c3.3,13.29 5.33,23.5 4.63,32.24 -0.7,8.8 -4.14,16.08 -11.78,23.46 -3.49,3.37 -6.24,8.46 -7.65,14.7 -1.27,5.69 -1.42,12.32 0.02,19.46 0.05,0.29 -0.13,0.56 -0.41,0.62 -0.28,0.05 -0.56,-0.13 -0.62,-0.41 -1.47,-7.3 -1.31,-14.08 -0.01,-19.9 1.45,-6.44 4.32,-11.72 7.95,-15.23 7.43,-7.17 10.78,-14.25 11.46,-22.78 0.68,-8.6 -1.33,-18.72 -4.61,-31.91l-0.13 -0.56c-3.06,-13.36 0.82,-35.26 13.99,-55.91 13.15,-20.63 35.57,-40.04 69.58,-48.49 0.81,-0.2 1.62,-0.4 2.44,-0.59 62.82,-14.4 85.63,11.94 102.85,31.82 2.07,2.39 4.06,4.7 6.05,6.84 11.2,12.04 12.83,38.61 14.22,61.09 0.9,14.51 1.68,27.3 4.84,33.18 1.61,2.99 4.18,6.88 7.21,11.47 12.35,18.67 32.3,48.86 26.8,78.03 -1.04,5.54 -3.04,10.67 -5.68,15.39 -3,5.36 -6.83,10.18 -11.02,14.47z"/>
  <path class="fil21" d="M425.38 277.81c-0.01,-0.29 0.21,-0.54 0.5,-0.55 0.29,-0.02 0.53,0.21 0.55,0.49 0.49,9.45 0.92,22.82 0.28,34.57 -0.64,11.87 -2.38,22.12 -6.27,25.18 -0.22,0.18 -0.55,0.14 -0.73,-0.09 -0.18,-0.22 -0.14,-0.55 0.09,-0.73 3.6,-2.84 5.24,-12.82 5.87,-24.41 0.63,-11.71 0.2,-25.04 -0.29,-34.46z"/>
  <path class="fil23" d="M512.99 194.81c0.27,0.09 0.42,0.39 0.33,0.67 -0.1,0.27 -0.39,0.42 -0.67,0.32 -0.03,-0.01 -12.59,-4.53 -19.03,16.21 -0.09,0.28 -0.38,0.43 -0.66,0.35 -0.27,-0.09 -0.43,-0.38 -0.34,-0.65 6.77,-21.79 20.33,-16.91 20.37,-16.9z"/>
  <path class="fil23" d="M509.34 205.86c0.18,0.22 0.14,0.55 -0.09,0.73 -0.22,0.18 -0.55,0.14 -0.73,-0.09 -0.01,-0.02 -4.37,-5.66 -10.55,-4.22 -0.29,0.07 -0.57,-0.11 -0.63,-0.39 -0.07,-0.28 0.11,-0.56 0.39,-0.63 6.83,-1.59 11.6,4.58 11.61,4.6z"/>
  <path class="fil21" d="M470.81 253.78c0.18,-0.23 0.51,-0.27 0.73,-0.09 0.23,0.18 0.27,0.51 0.09,0.74 -0.08,0.1 -28.26,35.96 -45.17,37.41 -0.29,0.02 -0.54,-0.19 -0.57,-0.48 -0.02,-0.29 0.2,-0.54 0.48,-0.57 16.46,-1.41 44.36,-36.91 44.44,-37.01z"/>
  <path class="fil21" d="M451.27 183.84c-6.49,-1.72 -20.57,-4.76 -29.28,-1.42 -1.15,0.44 -1.64,0.67 -1.62,0.72 0.53,1.39 17.02,1.01 27.15,0.78l3.75 -0.08zm-29.65 -2.4c11.94,-4.57 33.39,2.39 33.45,2.41 0.22,0.07 0.38,0.28 0.37,0.52 -0.01,0.29 -0.26,0.51 -0.55,0.5 -1.07,-0.04 -3.83,0.02 -7.35,0.1 -10.4,0.23 -27.36,0.62 -28.15,-1.46 -0.26,-0.67 0.39,-1.37 2.23,-2.07z"/>
  <path class="fil21" d="M376.37 167.37c0.81,0.19 16.45,4.02 22.14,11.36 0.95,1.22 1.08,1.97 0.59,2.35 -0.1,0.08 -0.23,0.12 -0.35,0.11 -2.3,0.14 -12.06,-6.08 -18.19,-9.99 -2.18,-1.4 -3.89,-2.49 -4.6,-2.88 -0.25,-0.13 -0.34,-0.45 -0.2,-0.71 0.12,-0.22 0.38,-0.32 0.61,-0.24zm21.31 11.99c-3.94,-5.09 -13.03,-8.45 -18.06,-10l1.51 0.96c6.27,4 16.49,10.52 17.33,9.94l0 -0.01c0.03,-0.02 -0.27,-0.24 -0.78,-0.89z"/>
  <path class="fil21" d="M393.22 191.84c1.17,0.27 2.07,1.1 2.6,2.23 0.5,1.09 0.66,2.46 0.33,3.85 -0.32,1.39 -1.06,2.55 -2,3.3 -0.97,0.78 -2.15,1.13 -3.31,0.86 -1.16,-0.27 -2.07,-1.11 -2.6,-2.24 -0.5,-1.08 -0.65,-2.45 -0.33,-3.84 0.32,-1.39 1.06,-2.55 2,-3.3 0.97,-0.78 2.15,-1.13 3.31,-0.86zm1.65 2.67c-0.39,-0.84 -1.05,-1.46 -1.89,-1.65 -0.83,-0.19 -1.69,0.07 -2.42,0.65 -0.76,0.61 -1.36,1.57 -1.63,2.73 -0.27,1.15 -0.15,2.28 0.26,3.16 0.4,0.84 1.06,1.46 1.89,1.66 0.83,0.19 1.69,-0.07 2.42,-0.66 0.76,-0.61 1.36,-1.57 1.63,-2.72 0.27,-1.16 0.15,-2.28 -0.26,-3.17z"/>
  <path class="fil21" d="M435.91 199.4l0.06 0.02c1.15,0.28 2.05,1.11 2.57,2.22 0.5,1.08 0.65,2.44 0.34,3.82l-0.02 0.06c-0.32,1.38 -1.06,2.52 -1.99,3.27 -0.97,0.78 -2.15,1.13 -3.31,0.86 -1.17,-0.27 -2.07,-1.11 -2.6,-2.23 -0.5,-1.09 -0.66,-2.46 -0.33,-3.85 0.32,-1.39 1.06,-2.55 2,-3.3 0.96,-0.77 2.12,-1.12 3.28,-0.87zm1.68 2.69c-0.4,-0.85 -1.05,-1.46 -1.88,-1.66l-0.01 0c-0.83,-0.19 -1.69,0.07 -2.42,0.65 -0.76,0.62 -1.36,1.57 -1.63,2.73 -0.27,1.15 -0.15,2.28 0.26,3.16 0.39,0.85 1.05,1.47 1.89,1.66 0.83,0.19 1.69,-0.07 2.42,-0.65 0.76,-0.62 1.36,-1.57 1.63,-2.73 0.27,-1.15 0.15,-2.28 -0.26,-3.16z"/>
  <path class="fil21" d="M401.5 194.95c0.13,-0.26 0.45,-0.36 0.71,-0.22 0.25,0.13 0.35,0.45 0.21,0.71 -0.06,0.11 -21.98,41.16 6.71,37.37 0.29,-0.04 0.55,0.16 0.59,0.45 0.04,0.29 -0.16,0.55 -0.45,0.59 -30.72,4.05 -7.84,-38.78 -7.77,-38.9z"/>
  <path class="fil21" d="M397.55 243.3c-0.27,-0.11 -0.39,-0.42 -0.28,-0.69 0.11,-0.26 0.41,-0.39 0.68,-0.28 0.17,0.07 0.41,0.22 0.75,0.42 2.99,1.8 14.34,8.64 36.16,-0.72 0.26,-0.11 0.57,0.01 0.68,0.28 0.12,0.27 -0.01,0.57 -0.27,0.69 -22.31,9.57 -34.02,2.51 -37.11,0.65 -0.3,-0.18 -0.51,-0.31 -0.61,-0.35z"/>
  <path class="fil21" d="M430.41 238.7c-0.25,-0.14 -0.35,-0.46 -0.21,-0.71 0.14,-0.26 0.45,-0.35 0.71,-0.21 2.22,1.19 3.73,2.62 4.52,4.29 0.81,1.68 0.87,3.57 0.2,5.67 -0.09,0.28 -0.38,0.43 -0.66,0.34 -0.27,-0.09 -0.42,-0.38 -0.33,-0.66 0.58,-1.84 0.53,-3.47 -0.15,-4.9 -0.7,-1.46 -2.06,-2.73 -4.08,-3.82z"/>
  <path class="fil21" d="M299.63 658.63c-0.29,0 -0.53,-0.23 -0.53,-0.52 0,-0.29 0.24,-0.52 0.53,-0.52l247.98 0c0.29,0 0.52,0.23 0.52,0.52 0,0.29 -0.23,0.52 -0.52,0.52l-247.98 0z"/>
  <path class="fil16" d="M593.05 301.4c5.42,-28.75 -14.39,-58.72 -26.65,-77.26 -3.05,-4.61 -5.63,-8.52 -7.26,-11.54 -3.27,-6.09 -4.06,-18.98 -4.96,-33.62 -1.38,-22.3 -3.01,-48.67 -13.94,-60.44 -1.98,-2.12 -3.99,-4.45 -6.08,-6.87 -17.04,-19.67 -39.62,-45.74 -101.83,-31.48 -0.82,0.19 -1.62,0.38 -2.42,0.58 -33.71,8.38 -55.93,27.61 -68.95,48.04 -13.01,20.41 -16.86,41.99 -13.85,55.11l0.13 0.55c3.3,13.29 5.33,23.5 4.63,32.24 -0.7,8.8 -4.14,16.08 -11.78,23.46 -3.49,3.37 -6.24,8.46 -7.65,14.7 -1.25,5.59 -1.42,12.08 -0.06,19.07 0.32,0.03 0.64,0.05 0.95,0.07 8,0.58 15.71,1.19 20.69,1.62 4.84,0.42 7.27,0.7 8.37,2.53 1.06,1.75 0.66,4.76 -0.14,10.65 -0.52,3.77 -1.2,8.75 -1.94,14.14 6.86,-1.19 14.16,-2.31 21.88,-3.36 7.95,-1.07 16.32,-2.07 25.08,-2.98 0.01,0 0.02,0 0.03,0 0.01,0 0.02,0 0.03,0 3.08,-0.32 6.23,-0.63 9.45,-0.92 3.08,-0.28 6.15,-0.54 9.18,-0.77 -0.02,-1.19 -0.04,-2.38 -0.06,-3.55 -0.01,-0.01 -0.01,-0.01 -0.01,-0.01 0,-0.03 0,-0.05 0,-0.08 -0.1,-4.69 -0.29,-9.13 -0.48,-12.96 -8.5,0.18 -16.02,-2.47 -22.42,-7.3 -7.44,-5.62 -13.36,-14.19 -17.52,-24.69 -7.94,-20.03 -9.52,-47.11 -3.19,-74.04 -0.6,-0.38 -1.17,-0.74 -1.72,-1.09 -2.18,-1.4 -3.89,-2.49 -4.6,-2.88 -0.25,-0.13 -0.34,-0.45 -0.2,-0.71 0.12,-0.22 0.38,-0.32 0.61,-0.24 0.33,0.07 3.08,0.75 6.62,2.01 1.41,-5.49 3.15,-10.97 5.24,-16.38 2.09,-5.41 4.52,-10.73 7.31,-15.92 0.12,-0.21 0.36,-0.32 0.59,-0.26 0.01,0.01 0.02,0.01 0.04,0.01 32.81,8.43 47.63,-11.21 47.68,-11.27 0.17,-0.22 0.5,-0.27 0.73,-0.09 0.18,0.14 0.25,0.38 0.18,0.58 -0.25,0.76 -15.44,48.89 42.89,77.9 1.76,-3.34 13.05,-23.44 25.94,-18.14 3.79,1.56 5.4,5.96 5.35,11.52 -0.05,3.89 -0.91,8.37 -2.41,12.82 -1.51,4.45 -3.66,8.89 -6.29,12.72 -5.04,7.33 -11.83,12.45 -19.23,11.25 -0.59,4.05 -4.09,30.87 0.5,63.7 5.06,1.11 9.97,2.42 14.83,3.85 4.96,1.48 9.85,3.08 14.75,4.76 8.72,2.97 17.52,6.18 25.75,9.49 7.24,2.92 14.04,5.91 19.95,8.89 2.08,1.05 4.05,2.1 5.91,3.14 1.47,0.83 2.87,1.65 4.21,2.48 4.02,-4.16 7.68,-8.81 10.57,-13.95 2.58,-4.63 4.54,-9.66 5.57,-15.08z"/>
  <path class="fil21" d="M592.7 301.34c2.7,-14.3 -0.89,-28.91 -6.67,-42.26 -5.79,-13.37 -13.8,-25.48 -19.92,-34.74 -1.52,-2.3 -2.92,-4.42 -4.16,-6.38 -1.24,-1.94 -2.3,-3.68 -3.11,-5.2 -1.66,-3.08 -2.69,-7.87 -3.41,-13.72 -0.72,-5.81 -1.15,-12.71 -1.6,-20.04 -0.69,-11.14 -1.44,-23.3 -3.38,-34.13 -1.94,-10.79 -5.05,-20.27 -10.47,-26.09 -1,-1.08 -2,-2.2 -3,-3.33 -0.94,-1.07 -2,-2.3 -3.09,-3.55 -8.5,-9.81 -18.37,-21.22 -33.86,-28.38 -15.48,-7.16 -36.61,-10.1 -67.62,-2.99l-1.22 0.29 -1.2 0.29c-15.63,3.88 -28.78,10.11 -39.69,17.71 -12.54,8.73 -22.1,19.29 -29.05,30.18 -6.12,9.61 -10.21,19.48 -12.5,28.59 -2.56,10.16 -2.88,19.38 -1.3,26.26l0.13 0.54c1.65,6.65 2.98,12.53 3.82,17.86 0.84,5.33 1.17,10.09 0.82,14.49 -0.35,4.44 -1.4,8.5 -3.32,12.39 -1.92,3.88 -4.72,7.57 -8.56,11.29 -1.75,1.68 -3.31,3.8 -4.6,6.29 -1.26,2.43 -2.27,5.2 -2.96,8.24 -0.64,2.84 -0.99,5.93 -1,9.2 -0.01,3.01 0.27,6.18 0.89,9.46l0.69 0.05c3.95,0.29 7.8,0.58 11.28,0.85 3.65,0.29 6.9,0.55 9.41,0.77 2.44,0.22 4.27,0.39 5.65,0.75 1.44,0.38 2.38,0.95 2.99,1.95 0.57,0.94 0.75,2.19 0.68,3.97 -0.07,1.72 -0.37,3.96 -0.78,6.91l-1.87 13.66c3.3,-0.57 6.69,-1.12 10.16,-1.65 3.61,-0.56 7.37,-1.1 11.26,-1.62 4.01,-0.55 8.1,-1.07 12.26,-1.56 4.16,-0.49 8.44,-0.97 12.84,-1.42l0.06 -0.01c1.51,-0.15 3.06,-0.31 4.67,-0.47 1.57,-0.15 3.16,-0.3 4.78,-0.45 1.62,-0.15 3.17,-0.28 4.61,-0.4 1.41,-0.12 2.82,-0.23 4.25,-0.34 -0.02,-1.08 -0.1,-2.25 -0.06,-3.32 -0.06,-2.33 -0.13,-4.61 -0.21,-6.79 -0.08,-2.04 -0.17,-3.99 -0.26,-5.82 -4.09,0.05 -7.96,-0.54 -11.58,-1.72 -3.85,-1.26 -7.43,-3.17 -10.72,-5.65 -3.7,-2.79 -7.03,-6.31 -9.95,-10.44 -2.99,-4.21 -5.56,-9.06 -7.68,-14.41 -4.04,-10.19 -6.44,-22.2 -7,-35.08 -0.53,-12.44 0.65,-25.69 3.73,-38.92l-1.5 -0.96c-1.07,-0.68 -2.02,-1.29 -2.86,-1.81 -0.78,-0.49 -1.37,-0.86 -1.72,-1.05 -0.21,-0.12 -0.36,-0.31 -0.42,-0.52 -0.06,-0.21 -0.04,-0.45 0.07,-0.66 0.1,-0.19 0.26,-0.32 0.44,-0.39 0.18,-0.08 0.39,-0.09 0.59,-0.03 0.21,0.05 0.98,0.25 2.09,0.56 1.1,0.32 2.55,0.76 4.18,1.33 0.69,-2.65 1.45,-5.29 2.3,-7.93 0.86,-2.72 1.82,-5.43 2.86,-8.12 1.05,-2.73 2.19,-5.44 3.43,-8.12 1.21,-2.65 2.51,-5.26 3.89,-7.83 0.1,-0.18 0.25,-0.31 0.42,-0.39 0.18,-0.08 0.38,-0.1 0.57,-0.05l0.05 0.02c32.43,8.32 47.13,-10.92 47.3,-11.15l0 0c0.15,-0.19 0.36,-0.3 0.58,-0.33 0.22,-0.03 0.45,0.03 0.64,0.17 0.15,0.12 0.26,0.28 0.31,0.44 0.05,0.18 0.05,0.36 -0.01,0.54 -0.16,0.48 -3.94,12.57 -0.51,28.16 3.43,15.62 14.1,34.73 42.92,49.15 1.08,-2 4.26,-7.53 8.7,-12.09 4.74,-4.86 10.91,-8.62 17.53,-5.9 1.91,0.79 3.29,2.26 4.19,4.22 0.96,2.07 1.39,4.69 1.36,7.63 -0.02,1.95 -0.24,4.05 -0.65,6.21 -0.41,2.19 -1.01,4.46 -1.77,6.71 -0.77,2.27 -1.71,4.54 -2.79,6.73 -1.05,2.13 -2.24,4.18 -3.54,6.08 -2.69,3.91 -5.88,7.2 -9.4,9.26 -3.07,1.79 -6.38,2.65 -9.83,2.19 -0.34,2.45 -1.28,9.94 -1.63,20.67 -0.37,11.24 -0.1,26.04 2.16,42.34 2.43,0.54 4.85,1.13 7.26,1.76 2.47,0.64 4.92,1.33 7.34,2.05 2.49,0.74 4.96,1.51 7.42,2.3 2.46,0.8 4.91,1.62 7.36,2.46 4.52,1.54 9.06,3.15 13.52,4.79 4.15,1.53 8.26,3.11 12.24,4.71 3.71,1.49 7.32,3.01 10.76,4.55 3.26,1.45 6.34,2.9 9.21,4.35 1.06,0.53 2.08,1.06 3.04,1.57 0.98,0.52 1.95,1.05 2.89,1.58 0.71,0.4 1.43,0.81 2.15,1.23 0.65,0.39 1.27,0.75 1.84,1.1 2,-2.08 3.91,-4.29 5.68,-6.62 1.69,-2.24 3.25,-4.59 4.63,-7.05 1.32,-2.36 2.48,-4.83 3.43,-7.4 0.9,-2.43 1.61,-4.96 2.1,-7.57zm-6.03 -42.53c5.83,13.46 9.44,28.2 6.72,42.66 -0.5,2.66 -1.23,5.22 -2.14,7.68 -0.96,2.6 -2.13,5.1 -3.47,7.5 -1.4,2.49 -2.97,4.87 -4.68,7.13 -1.84,2.43 -3.84,4.73 -5.94,6.89l-0.19 0.2 -0.24 -0.15c-0.71,-0.43 -1.39,-0.84 -2.06,-1.24 -0.68,-0.39 -1.39,-0.8 -2.14,-1.22 -0.92,-0.52 -1.88,-1.04 -2.88,-1.57 -0.99,-0.53 -2,-1.06 -3.02,-1.57 -2.87,-1.45 -5.95,-2.9 -9.18,-4.34 -3.41,-1.52 -7.02,-3.04 -10.74,-4.53 -3.96,-1.59 -8.06,-3.17 -12.22,-4.7 -4.48,-1.65 -9.01,-3.26 -13.51,-4.79 -2.45,-0.84 -4.9,-1.66 -7.35,-2.45 -2.45,-0.8 -4.91,-1.57 -7.39,-2.3 -2.43,-0.72 -4.87,-1.41 -7.33,-2.05 -2.45,-0.64 -4.93,-1.24 -7.47,-1.8l-0.24 -0.05 -0.03 -0.24c-2.3,-16.44 -2.57,-31.37 -2.2,-42.7 0.38,-11.34 1.4,-19.07 1.69,-21.1l0.05 -0.35 0.35 0.06c3.41,0.55 6.68,-0.27 9.72,-2.05 3.42,-2 6.54,-5.22 9.17,-9.06 1.29,-1.87 2.46,-3.89 3.5,-5.99 1.06,-2.16 1.99,-4.4 2.75,-6.64 0.75,-2.23 1.34,-4.46 1.75,-6.62 0.4,-2.13 0.62,-4.18 0.64,-6.09 0.03,-2.83 -0.38,-5.35 -1.3,-7.33 -0.83,-1.8 -2.09,-3.15 -3.83,-3.87 -6.27,-2.58 -12.19,1.06 -16.76,5.75 -4.62,4.75 -7.87,10.57 -8.75,12.23l-0.15 0.3 -0.31 -0.15c-29.28,-14.56 -40.11,-33.94 -43.59,-49.78 -3.48,-15.84 0.4,-28.15 0.52,-28.53l0.01 -0.01c0.01,-0.03 0.01,-0.07 0,-0.11 -0.01,-0.03 -0.03,-0.06 -0.06,-0.08 -0.04,-0.03 -0.09,-0.04 -0.13,-0.04 -0.05,0.01 -0.09,0.03 -0.12,0.07 -0.17,0.23 -15.15,19.83 -48.04,11.39l-0.03 -0.01c-0.04,-0.01 -0.08,0 -0.12,0.01 -0.03,0.01 -0.06,0.04 -0.08,0.08 -1.38,2.57 -2.68,5.17 -3.88,7.79 -1.23,2.67 -2.36,5.37 -3.41,8.09 -1.04,2.67 -1.99,5.37 -2.85,8.07 -0.88,2.75 -1.67,5.51 -2.38,8.26l-0.09 0.38 -0.36 -0.13c-1.76,-0.63 -3.33,-1.11 -4.5,-1.44 -1.18,-0.34 -1.93,-0.53 -2.09,-0.57l-0.02 0c-0.04,-0.01 -0.08,-0.01 -0.12,0 -0.04,0.02 -0.07,0.05 -0.09,0.08 -0.02,0.04 -0.02,0.09 -0.01,0.13 0.01,0.05 0.04,0.08 0.08,0.11 0.35,0.19 0.96,0.57 1.76,1.07 0.75,0.47 1.75,1.1 2.86,1.81l1.93 1.23 -0.06 0.24c-3.11,13.24 -4.31,26.52 -3.77,38.97 0.55,12.81 2.93,24.74 6.94,34.86 2.1,5.29 4.65,10.09 7.61,14.26 2.88,4.06 6.16,7.53 9.8,10.29 3.23,2.43 6.74,4.3 10.52,5.53 3.65,1.19 7.55,1.78 11.68,1.69l0.34 -0.01 0.02 0.34c0.09,1.9 0.19,3.97 0.27,6.16 0.09,2.17 0.16,4.46 0.21,6.82 0,1.31 0.05,2.65 0.07,3.97l-0.33 0.02c-1.5,0.11 -3.02,0.24 -4.56,0.36 -1.63,0.14 -3.15,0.27 -4.61,0.4 -1.59,0.15 -3.19,0.3 -4.77,0.46 -1.54,0.15 -3.1,0.3 -4.67,0.47l-0.06 0c-4.35,0.45 -8.62,0.93 -12.82,1.42 -4.21,0.5 -8.3,1.02 -12.26,1.56 -3.82,0.52 -7.57,1.06 -11.25,1.62 -3.66,0.56 -7.2,1.14 -10.61,1.73l-0.47 0.08 2 -14.61c0.4,-2.93 0.7,-5.15 0.77,-6.84 0.06,-1.64 -0.09,-2.77 -0.58,-3.58 -0.5,-0.83 -1.31,-1.31 -2.57,-1.63 -1.32,-0.35 -3.12,-0.52 -5.53,-0.73 -2.56,-0.22 -5.8,-0.49 -9.4,-0.77 -3.52,-0.28 -7.38,-0.57 -11.28,-0.85l-1.22 -0.09 -0.05 -0.26c-0.67,-3.42 -0.97,-6.72 -0.96,-9.86 0.01,-3.32 0.37,-6.46 1.02,-9.35 0.7,-3.11 1.73,-5.94 3.02,-8.41 1.33,-2.55 2.93,-4.74 4.73,-6.48 3.79,-3.65 6.54,-7.29 8.42,-11.09 1.88,-3.8 2.91,-7.78 3.26,-12.14 0.34,-4.34 0.01,-9.05 -0.82,-14.33 -0.83,-5.29 -2.16,-11.15 -3.81,-17.8l-0.13 -0.55c-1.6,-6.97 -1.28,-16.31 1.3,-26.58 2.31,-9.18 6.43,-19.12 12.59,-28.8 7,-10.96 16.63,-21.58 29.25,-30.38 10.96,-7.64 24.19,-13.9 39.91,-17.81l1.21 -0.29 1.22 -0.29c31.19,-7.15 52.46,-4.18 68.08,3.04 15.61,7.22 25.55,18.69 34.09,28.55 1.01,1.17 2,2.32 3.08,3.55 1.03,1.15 2.02,2.27 2.99,3.31 5.52,5.94 8.69,15.54 10.64,26.45 1.95,10.87 2.71,23.05 3.39,34.21 0.45,7.31 0.88,14.18 1.6,19.99 0.71,5.78 1.72,10.48 3.33,13.48 0.81,1.51 1.86,3.24 3.08,5.16 1.22,1.9 2.63,4.05 4.16,6.36 6.14,9.28 14.16,21.42 19.98,34.86z"/>
  <path class="fil24" d="M436.43 495.22l-0.01 -0.01 0 -0.01c-0.08,-0.13 -0.14,-0.26 -0.2,-0.4 -0.18,-0.41 -0.31,-0.88 -0.11,-1.31 0.21,-0.44 0.65,-0.59 1.09,-0.64 1.29,-0.14 3.33,0.54 4.53,0.98 2.03,0.72 4.04,1.62 6,2.52 2.4,1.1 4.77,2.27 7.13,3.46 4.36,2.19 8.68,4.48 12.97,6.8l0.99 0.53c0.32,0.18 1.45,0.81 2.41,1.28 -0.89,-0.85 -2.07,-1.88 -2.38,-2.16l-0.83 -0.73c-3.98,-3.54 -7.93,-7.12 -11.82,-10.76 -0.4,-0.38 -0.81,-0.75 -1.21,-1.13 -1.99,-1.87 -3.96,-3.76 -5.89,-5.69 -1.7,-1.68 -3.39,-3.4 -4.99,-5.17 -1.3,-1.43 -2.58,-2.93 -3.7,-4.5 -0.75,-1.06 -1.49,-2.22 -1.98,-3.42 -0.6,-1.47 -0.82,-3.1 0.24,-4.41 1.14,-1.4 2.97,-1.59 4.65,-1.37 3.35,0.44 7.32,2.56 10.18,4.26 2.42,1.43 4.78,3 7.09,4.6 2.65,1.83 5.27,3.72 7.86,5.63 0.43,0.32 0.86,0.64 1.28,0.96 4.99,3.71 9.89,7.53 14.79,11.37l0.01 0.01 0.01 0.01 0.01 0 0.02 0.02c1.68,1.32 3.37,2.67 5.09,3.93 0.22,0.16 0.85,0.62 1.36,0.93 -0.08,-0.46 -0.21,-1.01 -0.26,-1.21 -0.83,-3.81 -1.82,-7.67 -3.53,-11.18 -1.15,-2.37 -2.64,-4.52 -4.21,-6.62l-0.01 -0.02 -0.01 -0.01 -0.01 -0.01 -0.01 -0.02c-0.64,-0.85 -1.29,-1.69 -1.94,-2.54 -0.72,-0.94 -1.45,-1.89 -2.17,-2.85 -1.86,-2.48 -3.67,-5.03 -5.33,-7.66 -1.52,-2.41 -3.04,-5.07 -4.04,-7.75 -0.64,-1.75 -1.08,-3.6 -1.15,-5.47 -0.07,-1.65 0.14,-3.37 0.75,-4.91 0.22,-0.56 0.52,-1.13 1.1,-1.38 0.36,-0.15 0.74,-0.14 1.11,-0.02 0.74,0.25 1.52,0.84 2.12,1.33 1.1,0.9 2.15,1.92 3.16,2.93 1.32,1.32 2.61,2.68 3.89,4.04 1.55,1.65 3.09,3.31 4.63,4.97l0.03 0.03 0 0.01 0.01 0 0.03 0.03c0.14,0.15 0.28,0.31 0.42,0.46 4.33,4.67 8.67,9.39 13.19,13.88 3.01,2.99 6.13,5.87 9.4,8.57 0.54,0.44 1.08,0.88 1.62,1.31 -0.28,-2.89 -0.58,-5.78 -1.01,-8.65 -0.51,-3.35 -1.2,-6.64 -2.17,-9.88 -0.93,-3.12 -2.1,-6.18 -3.25,-9.23 -0.67,-1.76 -1.34,-3.51 -1.94,-5.28 -0.51,-1.46 -1,-2.98 -1.3,-4.5 -0.34,-1.7 -0.47,-3.64 0.16,-5.3 0.37,-0.96 0.98,-1.77 1.85,-2.34 0.75,-0.48 1.46,-0.45 2.14,0.15 0.5,0.43 0.94,1.03 1.32,1.57 0.63,0.91 1.22,1.87 1.8,2.82 2.13,3.55 4.15,7.21 6.11,10.86 1.91,3.57 3.77,7.19 5.5,10.85 1.59,3.37 3.08,6.81 4.22,10.36 1.07,3.31 1.79,6.63 2.22,10.08 0.64,5.19 0.68,10.51 0.73,15.74 0.02,1.68 0.03,3.36 0.09,5.03 0.06,1.83 0.16,3.88 0.7,5.63 0.45,1.5 1.21,2.68 2.14,3.91 1.51,2 3.26,3.86 5.11,5.55 0.89,0.81 1.81,1.59 2.76,2.35l0.02 0.01 0.01 0.01 0 0 0.02 0.02c1.18,0.93 2.4,1.81 3.65,2.65 3.09,2.05 6.39,3.87 9.69,5.55 3.29,1.67 6.64,3.25 10.02,4.73l1.71 0.76c4.86,2.14 9.36,4.05 13.12,7.94 1.87,1.93 3.5,4.21 4.91,6.49 1.59,2.56 3.07,5.4 4.19,8.2 0.52,1.34 1.05,2.88 1.15,4.32 0.07,0.91 -0.05,1.6 -0.28,2.47l0 0.01 -0.01 0.01c0,0 0,0 0,0.01l0 0.01 -0.01 0.01c-0.87,3.09 -1.87,6.18 -3.11,9.14 -1.69,4.06 -3.91,8.01 -7.1,11.08 -2.83,2.71 -6.1,4.42 -9.83,5.55 -4.4,1.31 -9.13,1.75 -13.7,1.44 -4.66,-0.33 -9.25,-1.44 -13.52,-3.32 -4.41,-1.95 -8.53,-4.71 -12.25,-7.76 -4.39,-3.58 -8.45,-7.72 -12.06,-12.09 -1.81,-2.19 -3.51,-4.46 -5.13,-6.8 -1.32,-1.91 -2.58,-3.85 -3.83,-5.8 -1.01,-1.58 -2.04,-3.22 -3.17,-4.72 -1,-1.33 -2.17,-2.63 -3.66,-3.41 -1.34,-0.71 -2.83,-0.95 -4.31,-1.12l-1.13 -0.12c-1.9,-0.2 -3.78,-0.41 -5.61,-0.98 -2.14,-0.67 -4,-1.76 -5.44,-3.51 -1.9,-2.3 -3.09,-5.71 -3.95,-8.54 -0.41,-1.36 -0.79,-2.74 -1.16,-4.11 -0.36,-1.32 -0.71,-2.65 -1.13,-3.95 -0.69,-2.14 -1.44,-3.79 -2.93,-5.48 -0.82,-0.93 -1.76,-1.78 -2.71,-2.58 -1.38,-1.17 -2.83,-2.27 -4.26,-3.37 -1.58,-1.2 -3.16,-2.39 -4.75,-3.59 -2.47,-1.85 -4.93,-3.71 -7.38,-5.59 -2.37,-1.81 -4.72,-3.64 -7.04,-5.51 -1.95,-1.58 -3.9,-3.2 -5.74,-4.91 -0.83,-0.77 -1.65,-1.57 -2.4,-2.42 -0.52,-0.58 -1.05,-1.24 -1.44,-1.91l-0.01 -0.02 0 -0.01z"/>
  <path class="fil17" d="M354.93 334.35c1.04,-7.53 2.75,-19.92 4.24,-30.8 0,-0.02 0.01,-0.05 0.01,-0.07 0.78,-5.65 1.5,-10.88 2.03,-14.81 0.77,-5.65 1.16,-8.53 0.28,-9.97 -0.83,-1.38 -3.07,-1.63 -7.56,-2.02 -5.03,-0.44 -12.73,-1.05 -20.67,-1.62 -6.88,-0.5 -13.94,-0.97 -19.63,-1.3 -6.18,-0.35 -10.78,-0.52 -14.25,-0.56 -3.46,-0.05 -5.82,0.04 -7.52,0.21 -1.52,0.16 -2.46,0.38 -3.02,1.85 -0.66,1.68 -0.93,4.85 -1.1,10.88 -0.06,2.16 -0.1,4.67 -0.13,7.41 -0.03,2.7 -0.05,5.62 -0.06,8.64 0.46,0.78 0.87,1.64 1.17,2.52 0.34,1 0.55,2.04 0.58,3.07 0.01,0.47 -0.01,0.94 -0.09,1.41 1.55,1.93 3.09,3.88 4.05,6.48 0.54,1.47 0.89,3.14 0.84,4.95 -0.04,1.51 -0.37,3.12 -1.12,4.76 -0.75,1.63 -1.91,3.3 -3.24,4.84 -0.67,0.78 -1.39,1.52 -2.11,2.22l0.01 1.41c0.01,1.54 0.02,2.89 0.03,4.06 0.02,1.01 0.04,1.89 0.08,2.67 2.84,1.09 5.36,2.12 7.26,3.02 1.9,0.9 3.18,1.69 4.07,2.44 0.03,0.03 0.06,0.05 0.09,0.08 2.43,0.17 5.16,0.35 8.03,0.5 2.97,0.15 6.12,0.28 9.28,0.35 1.26,0.03 2.52,0.04 3.78,0.06 0.02,-0.01 0.03,-0.01 0.04,0 3.12,0.02 6.22,0 9.17,-0.05 5.29,-0.1 10.11,-0.29 13.64,-0.49 3.14,-0.18 5.26,-0.35 6.73,-0.5 1.48,-0.15 2.29,-0.28 2.84,-0.37 0.72,-0.11 0.72,-0.11 2.24,-11.15l0.01 -0.12z"/>
  <path class="fil22" d="M354.59 334.3c2.1,-15.22 4.19,-30.45 6.28,-45.68 0.38,-2.81 0.67,-4.94 0.75,-6.53 0.08,-1.53 -0.03,-2.56 -0.43,-3.21 -0.36,-0.6 -1.06,-0.96 -2.19,-1.22 -1.19,-0.28 -2.87,-0.44 -5.1,-0.64 -2.58,-0.22 -5.83,-0.49 -9.45,-0.77 -3.51,-0.28 -7.34,-0.57 -11.22,-0.85 -3.6,-0.26 -7.25,-0.51 -10.69,-0.74 -3.19,-0.21 -6.23,-0.4 -8.93,-0.55 -3.1,-0.17 -5.79,-0.31 -8.14,-0.4 -2.35,-0.09 -4.37,-0.15 -6.09,-0.17 -1.73,-0.02 -3.18,-0.01 -4.41,0.03 -1.23,0.04 -2.23,0.1 -3.08,0.19 -0.72,0.07 -1.3,0.16 -1.74,0.39 -0.42,0.22 -0.74,0.59 -0.99,1.23 -0.31,0.81 -0.54,2 -0.71,3.72 -0.17,1.75 -0.28,4.05 -0.36,7.05 -0.03,1.07 -0.05,2.21 -0.08,3.43 -0.02,1.25 -0.04,2.59 -0.05,3.97l-0.04 4.12 -0.02 4.42c0.22,0.39 0.43,0.79 0.62,1.19 0.2,0.43 0.38,0.87 0.53,1.32 0.18,0.52 0.32,1.06 0.42,1.61 0.1,0.51 0.16,1.04 0.18,1.56 0,0.25 0,0.49 -0.01,0.73 -0.02,0.2 -0.03,0.4 -0.06,0.59 0.75,0.93 1.49,1.87 2.17,2.89 0.71,1.08 1.35,2.24 1.84,3.57 0.29,0.79 0.53,1.64 0.68,2.54 0.14,0.81 0.21,1.66 0.18,2.54 -0.02,0.81 -0.12,1.64 -0.32,2.48 -0.19,0.79 -0.46,1.6 -0.83,2.41 -0.37,0.81 -0.84,1.62 -1.37,2.41 -0.57,0.86 -1.23,1.71 -1.93,2.52 -0.34,0.39 -0.68,0.77 -1.03,1.13 -0.32,0.35 -0.65,0.68 -0.99,1.01l0.02 3.43 0.02 1.89 0.03 1.41 0.04 1.01c1.36,0.53 2.63,1.03 3.78,1.51 1.23,0.51 2.34,0.99 3.29,1.45 0.96,0.45 1.76,0.88 2.44,1.29 0.69,0.41 1.25,0.81 1.71,1.19 1.19,0.09 2.45,0.18 3.73,0.26 1.36,0.08 2.76,0.16 4.18,0.24 1.49,0.08 3.02,0.15 4.56,0.21 1.56,0.06 3.14,0.11 4.71,0.14l1.86 0.03 1.96 0.03c1.5,0.01 3,0.01 4.48,0 1.59,0 3.15,-0.02 4.67,-0.05 2.45,-0.04 4.8,-0.11 6.97,-0.19 2.49,-0.09 4.76,-0.19 6.66,-0.3 1.55,-0.08 2.87,-0.17 3.99,-0.26 1.11,-0.08 2,-0.16 2.72,-0.24 1.46,-0.15 2.27,-0.27 2.8,-0.36l0.02 0c0.2,-0.03 0.3,-0.05 0.54,-1.21 0.27,-1.37 0.65,-4.13 1.41,-9.64l0.02 -0.13zm1.3 -4.34l-0.63 4.56c-0.76,5.52 -1.14,8.28 -1.42,9.69 -0.33,1.63 -0.59,1.67 -1.11,1.75l-0.01 0.01c-0.56,0.08 -1.38,0.22 -2.84,0.37 -0.75,0.07 -1.65,0.16 -2.75,0.24 -1.1,0.08 -2.41,0.17 -4,0.26 -1.89,0.1 -4.16,0.21 -6.68,0.3 -2.16,0.07 -4.51,0.14 -6.97,0.19 -1.53,0.02 -3.09,0.04 -4.68,0.05 -1.49,0.01 -2.99,0.01 -4.5,-0.01l-1.96 -0.02 -1.87 -0.03c-1.59,-0.04 -3.16,-0.09 -4.71,-0.15 -1.57,-0.06 -3.1,-0.13 -4.58,-0.21 -1.45,-0.07 -2.85,-0.15 -4.18,-0.24 -1.36,-0.08 -2.65,-0.17 -3.85,-0.26l-0.12 0 -0.17 -0.15c-0.43,-0.36 -0.96,-0.74 -1.62,-1.13 -0.65,-0.4 -1.44,-0.82 -2.38,-1.26 -0.95,-0.46 -2.05,-0.94 -3.26,-1.44 -1.24,-0.51 -2.58,-1.04 -3.97,-1.58l-0.22 -0.08 -0.01 -0.23c-0.02,-0.38 -0.03,-0.8 -0.04,-1.25l-0.03 -1.42 -0.03 -1.9 -0.02 -3.72 0.11 -0.11c0.36,-0.34 0.72,-0.71 1.08,-1.09 0.34,-0.36 0.68,-0.73 1,-1.11 0.68,-0.79 1.32,-1.61 1.88,-2.44 0.51,-0.77 0.96,-1.55 1.31,-2.32 0.35,-0.77 0.61,-1.53 0.79,-2.28 0.19,-0.8 0.28,-1.58 0.31,-2.34 0.02,-0.83 -0.05,-1.63 -0.18,-2.4 -0.14,-0.85 -0.37,-1.67 -0.65,-2.42 -0.47,-1.28 -1.08,-2.39 -1.76,-3.42 -0.69,-1.04 -1.46,-2.01 -2.23,-2.96l-0.09 -0.12 0.02 -0.15c0.03,-0.24 0.06,-0.46 0.07,-0.68 0.01,-0.22 0.02,-0.45 0.01,-0.67 -0.01,-0.48 -0.07,-0.97 -0.16,-1.46 -0.1,-0.5 -0.23,-1.01 -0.4,-1.51 -0.15,-0.42 -0.31,-0.84 -0.5,-1.24 -0.2,-0.43 -0.41,-0.84 -0.64,-1.22l-0.05 -0.08 0.02 -4.61 0.04 -4.13c0.02,-1.39 0.03,-2.72 0.06,-3.97 0.02,-1.23 0.04,-2.38 0.07,-3.43 0.09,-3.03 0.2,-5.34 0.37,-7.1 0.17,-1.79 0.41,-3.04 0.75,-3.91 0.32,-0.82 0.75,-1.3 1.32,-1.6 0.55,-0.28 1.19,-0.38 1.99,-0.47 0.86,-0.08 1.88,-0.15 3.13,-0.19 1.24,-0.03 2.7,-0.04 4.44,-0.02 1.74,0.02 3.76,0.07 6.11,0.17 2.37,0.09 5.06,0.22 8.15,0.4 2.73,0.15 5.76,0.34 8.93,0.55 3.49,0.23 7.13,0.48 10.7,0.74 3.92,0.28 7.76,0.57 11.23,0.84 3.65,0.29 6.91,0.56 9.45,0.78 2.26,0.2 3.95,0.36 5.2,0.65 1.32,0.3 2.16,0.76 2.63,1.54 0.48,0.79 0.61,1.93 0.53,3.61 -0.09,1.62 -0.38,3.76 -0.76,6.59 -1.88,13.75 -3.78,27.49 -5.67,41.24z"/>
  <path class="fil16" d="M274.51 325.36c4.44,-3.74 8.87,-7.47 11.45,-10.34 1.32,-1.47 2.16,-2.72 2.67,-3.88 0.1,-0.23 0.19,-0.45 0.27,-0.67 -0.22,-0.27 -0.43,-0.54 -0.65,-0.81 -0.18,-0.23 -0.14,-0.55 0.08,-0.74 0.12,-0.09 0.27,-0.13 0.41,-0.11 0.05,0.01 0.11,0.03 0.16,0.06 0.02,-0.14 0.03,-0.27 0.04,-0.41 0.01,-0.22 0.02,-0.45 0.01,-0.67 -0.01,-0.48 -0.07,-0.97 -0.16,-1.46 -0.1,-0.5 -0.23,-1.01 -0.4,-1.51 -0.15,-0.42 -0.31,-0.84 -0.5,-1.24 -0.15,-0.32 -0.3,-0.62 -0.47,-0.91 -0.03,0.04 -0.08,0.08 -0.13,0.11 -0.08,0.05 -0.17,0.07 -0.27,0.07 -0.24,0 -0.44,-0.16 -0.5,-0.38l-0.03 0c0.5,0.79 0.93,1.67 1.24,2.58 0.3,0.9 0.5,1.84 0.52,2.76 0.03,0.94 -0.12,1.88 -0.57,2.91 -0.47,1.05 -1.26,2.22 -2.5,3.6 -2.54,2.83 -6.94,6.54 -11.34,10.24l-0.04 0.03c-0.21,0.19 -0.23,0.52 -0.04,0.74 0.19,0.22 0.52,0.24 0.73,0.05l0.02 -0.02z"/>
  <path class="fil25" d="M774.38 252.25l-125.15 0c-5.75,0 -10.45,-4.7 -10.45,-10.45l0 -120.79c0,-5.74 4.7,-10.44 10.45,-10.44l125.15 0c5.73,0 10.43,4.7 10.43,10.44l0 120.79c0,5.75 -4.7,10.45 -10.43,10.45z"/>
  <path class="fil26" d="M768.96 246.11l-114.31 0c-5.25,0 -9.54,-4.29 -9.54,-9.54l0 -110.32c0,-5.25 4.29,-9.54 9.54,-9.54l114.31 0c5.25,0 9.53,4.29 9.53,9.54l0 110.32c0,5.25 -4.28,9.54 -9.53,9.54z"/>
  <path class="fil27" d="M708.77 129.64c0,-1.67 1.36,-3.03 3.03,-3.03 1.68,0 3.02,1.36 3.02,3.03 0,1.67 -1.34,3.02 -3.02,3.02 -1.67,0 -3.03,-1.35 -3.03,-3.02z"/>
  <path class="fil27" d="M733.19 133.91c0.82,-1.46 2.65,-1.98 4.11,-1.17 1.46,0.81 1.99,2.65 1.18,4.11 -0.82,1.46 -2.66,1.99 -4.12,1.17 -1.46,-0.81 -1.99,-2.65 -1.17,-4.11z"/>
  <path class="fil27" d="M754.09 150.53c1.41,-0.91 3.28,-0.51 4.18,0.9 0.92,1.4 0.51,3.27 -0.9,4.18 -1.39,0.91 -3.26,0.5 -4.18,-0.9 -0.9,-1.41 -0.49,-3.28 0.9,-4.18z"/>
  <path class="fil27" d="M764.46 176.24c1.66,0 3.02,1.36 3.02,3.03 0,1.67 -1.36,3.02 -3.02,3.02 -1.69,0 -3.03,-1.35 -3.03,-3.02 0,-1.67 1.34,-3.03 3.03,-3.03z"/>
  <path class="fil27" d="M759.17 206.08c1.17,1.19 1.17,3.1 0,4.28 -1.19,1.18 -3.11,1.18 -4.28,0 -1.19,-1.18 -1.19,-3.09 0,-4.28 1.17,-1.18 3.09,-1.18 4.28,0z"/>
  <path class="fil27" d="M740.17 225.13c1.18,1.18 1.18,3.1 0,4.28 -1.19,1.18 -3.09,1.18 -4.28,0 -1.19,-1.18 -1.19,-3.1 0,-4.28 1.19,-1.18 3.09,-1.18 4.28,0z"/>
  <path class="fil27" d="M708.77 234.95c0,-1.67 1.36,-3.03 3.03,-3.03 1.68,0 3.02,1.36 3.02,3.03 0,1.67 -1.34,3.02 -3.02,3.02 -1.67,0 -3.03,-1.35 -3.03,-3.02z"/>
  <path class="fil27" d="M690.32 133.91c-0.81,-1.46 -2.66,-1.98 -4.11,-1.17 -1.47,0.81 -1.99,2.65 -1.18,4.11 0.81,1.46 2.66,1.99 4.11,1.17 1.46,-0.81 1.99,-2.65 1.18,-4.11z"/>
  <path class="fil27" d="M669.4 150.53c-1.4,-0.91 -3.27,-0.51 -4.18,0.9 -0.9,1.4 -0.5,3.27 0.9,4.18 1.41,0.91 3.28,0.5 4.19,-0.9 0.9,-1.41 0.5,-3.28 -0.91,-4.18z"/>
  <path class="fil27" d="M659.05 176.24c-1.67,0 -3.03,1.36 -3.03,3.03 0,1.67 1.36,3.02 3.03,3.02 1.67,0 3.02,-1.35 3.02,-3.02 0,-1.67 -1.35,-3.03 -3.02,-3.03z"/>
  <path class="fil27" d="M664.34 206.08c-1.18,1.19 -1.18,3.1 0,4.28 1.18,1.18 3.09,1.18 4.28,0 1.17,-1.18 1.17,-3.09 0,-4.28 -1.19,-1.18 -3.1,-1.18 -4.28,0z"/>
  <path class="fil27" d="M683.33 225.13c-1.18,1.18 -1.18,3.1 0,4.28 1.19,1.18 3.1,1.18 4.28,0 1.18,-1.18 1.18,-3.1 0,-4.28 -1.18,-1.18 -3.09,-1.18 -4.28,0z"/>
  <path class="fil27" d="M710.98 179.27c0,-1.67 1.36,-3.03 3.03,-3.03 1.68,0 3.02,1.36 3.02,3.03 0,1.67 -1.34,3.02 -3.02,3.02 -1.67,0 -3.03,-1.35 -3.03,-3.02z"/>
  <polygon class="fil27" points="713.6,179.27 714.42,179.27 714.42,141.48 713.6,141.48 "/>
  <polygon class="fil27" points="714.4,180.19 712.87,178.24 732.9,162.51 734.43,164.46 "/>
 </g>
</svg>
