<svg xmlns="http://www.w3.org/2000/svg" version="1.1" viewBox="353.72 321 317.83 375">
<path d="M0 0 C4.32065023 3.37221481 7.79560447 6.98562279 11.34375 11.15625 C13.356867 13.39726704 15.64476611 15.12789101 18 17 C19.56773322 18.76369987 21.07051716 20.57219517 22.57421875 22.390625 C24.19742049 24.22284176 26.02987255 25.56029148 28 27 C28 27.66 28 28.32 28 29 C28.556875 29.20625 29.11375 29.4125 29.6875 29.625 C32.26859114 31.15970284 33.74158703 33.02672682 35.5859375 35.36328125 C37.0828789 37.0959289 38.66947342 38.48491429 40.4375 39.9375 C43.59784431 42.5458191 46.1707911 45.39552978 48.73828125 48.58203125 C49.96479293 50.1369442 49.96479293 50.1369442 52 51 C52 51.66 52 52.32 52 53 C52.556875 53.20625 53.11375 53.4125 53.6875 53.625 C56.28795294 55.17121526 57.84752926 57.06917296 59.71484375 59.421875 C61.64141348 61.78763236 63.81725315 63.87182182 66 66 C70.33333333 70.33333333 74.66666667 74.66666667 79 79 C79.69004875 79.53465755 80.3800975 80.06931511 81.09105682 80.62017441 C83.75766954 83.94456523 83.55564182 86.96041301 83.50793457 91.04205322 C83.51417453 91.85905945 83.5204145 92.67606567 83.52684355 93.51782966 C83.54281782 96.25990003 83.5301516 99.00108685 83.51757812 101.74316406 C83.52299778 103.70792154 83.53011956 105.67267496 83.53881836 107.63742065 C83.55708753 112.98116379 83.54996551 118.32459869 83.53730202 123.66834736 C83.52717588 129.26895797 83.53656822 134.86954216 83.54284668 140.47015381 C83.55013142 149.8890048 83.54052123 159.30773052 83.52148438 168.7265625 C83.49978986 179.58503026 83.50670955 190.44319671 83.52879 201.30165696 C83.54701119 210.63866684 83.54946733 219.97558654 83.53903532 229.31260848 C83.53282743 234.88212363 83.53188829 240.45149786 83.54518127 246.02100372 C83.55683435 251.27093004 83.54854313 256.52047358 83.52560425 261.77035904 C83.52036398 263.68580366 83.52174942 265.6012811 83.53065491 267.51671219 C83.617275 288.06040773 80.16905153 307.51473062 65.2265625 322.83203125 C64.49179687 323.54746094 63.75703125 324.26289062 63 325 C62.40960937 325.62261719 61.81921875 326.24523437 61.2109375 326.88671875 C50.09581479 337.78149761 32.76552864 343.67252112 17.5 344.25 C0.26970862 343.98893498 -16.29219251 337.63718635 -29 326 C-29 325.34 -29 324.68 -29 324 C-29.66 324 -30.32 324 -31 324 C-32.42663574 322.55459595 -32.42663574 322.55459595 -34.09179688 320.54150391 C-38.02855838 315.91513617 -42.2317311 311.62387128 -46.53125 307.3359375 C-47.32599731 306.54023346 -48.12074463 305.74452942 -48.9395752 304.92471313 C-50.60904217 303.25456992 -52.27975556 301.58567177 -53.95166016 299.91796875 C-56.4962677 297.37872444 -59.03548414 294.83417707 -61.57421875 292.2890625 C-63.20540859 290.6585334 -64.83690858 289.02831449 -66.46875 287.3984375 C-67.59561218 286.26853897 -67.59561218 286.26853897 -68.74523926 285.11581421 C-72.57051597 281.30733951 -76.4494293 277.64972863 -80.60044861 274.19729614 C-82.27667302 272.7633102 -83.67615026 271.21373845 -85.0625 269.5 C-88.59701467 265.34269899 -92.3976092 261.48476804 -96.25 257.625 C-97.17244507 256.6959082 -97.17244507 256.6959082 -98.11352539 255.74804688 C-98.69996826 255.16345703 -99.28641113 254.57886719 -99.890625 253.9765625 C-100.41688477 253.45143066 -100.94314453 252.92629883 -101.48535156 252.38525391 C-103.15879531 250.78420638 -103.15879531 250.78420638 -106 249 C-106.46875 246.59765625 -106.46875 246.59765625 -106 244 C-104.15625 242.18359375 -104.15625 242.18359375 -101.5 240.4375 C-100.49195313 239.74914062 -99.48390625 239.06078125 -98.4453125 238.3515625 C-97.89004883 237.97676758 -97.33478516 237.60197266 -96.76269531 237.21582031 C-93.56362638 235.0092603 -90.47592549 232.65396862 -87.375 230.3125 C-86.70098145 229.80589844 -86.02696289 229.29929687 -85.33251953 228.77734375 C-74.25548481 220.44554366 -63.23599896 212.03947362 -52.37646484 203.42553711 C-45.72422931 198.16093985 -45.72422931 198.16093985 -42.75 197.5 C-36.69372353 198.60114118 -32.13467734 204.75651536 -28 209 C-26.33472628 210.66805845 -24.66788901 212.33455657 -23 214 C-19.66666667 217.33333333 -16.33333333 220.66666667 -13 224 C-12.12859375 224.85980469 -11.2571875 225.71960938 -10.359375 226.60546875 C-8.5364674 228.45553888 -6.86349672 230.28515184 -5.25 232.3125 C-4.5075 233.199375 -3.765 234.08625 -3 235 C-2.67 235 -2.34 235 -2 235 C-2 157.78 -2 80.56 -2 1 C-1.34 0.67 -0.68 0.34 0 0 Z " fill="#0FBDE3" transform="translate(588,321)"/>
<path d="M0 0 C0.53496094 0.51949219 1.06992187 1.03898437 1.62109375 1.57421875 C2.7619859 2.70156916 3.88291041 3.84905921 5 5 C5.598125 5.556875 6.19625 6.11375 6.8125 6.6875 C8 8 8 8 8 10 C8.60328125 10.26425781 9.2065625 10.52851563 9.828125 10.80078125 C12.1042287 12.05755074 13.16818433 13.15440162 14.75 15.1875 C16.98659934 17.91547344 19.30600697 20.22244482 22 22.5 C25.26152522 25.26358244 27.97603764 28.19409515 30.6796875 31.49609375 C32.25756616 33.29338158 34.07557756 34.5936913 36 36 C36 36.66 36 37.32 36 38 C36.556875 38.226875 37.11375 38.45375 37.6875 38.6875 C40.62878174 40.35687612 42.68613023 42.58121926 45 45 C46.49727025 46.50272479 47.99751038 48.00249376 49.5 49.5 C51.76632802 51.76632802 54.03237927 54.03265554 56.2890625 56.30859375 C58.43860657 58.44265119 60.61128811 60.54059602 62.8046875 62.62890625 C64.16167902 63.93987577 65.51844563 65.25107814 66.875 66.5625 C67.57625 67.22185547 68.2775 67.88121094 69 68.56054688 C69.65742187 69.20185547 70.31484375 69.84316406 70.9921875 70.50390625 C71.59401855 71.07955322 72.19584961 71.6552002 72.81591797 72.24829102 C74 74 74 74 73.84326172 76.0793457 C72.4979213 79.14355909 69.89030179 80.72127121 67.25 82.625 C66.0518823 83.51665702 64.85397103 84.40859147 63.65625 85.30078125 C63.04394531 85.75146973 62.43164062 86.2021582 61.80078125 86.66650391 C59.08694025 88.67612966 56.4203936 90.74564232 53.75 92.8125 C50.13838082 95.5949689 46.5198331 98.36819382 42.89453125 101.1328125 C35.37725437 106.86647327 27.88306961 112.62424868 20.46508789 118.48608398 C18.97897025 119.66023639 17.4896287 120.83030523 16 122 C15.26394531 122.598125 14.52789062 123.19625 13.76953125 123.8125 C12 125 12 125 9.5 124.875 C6.83136711 123.94097849 5.07174826 122.91828543 3 121 C3 120.34 3 119.68 3 119 C1.02 118.01 1.02 118.01 -1 117 C-1 116.34 -1 115.68 -1 115 C-1.66 115 -2.32 115 -3 115 C-4.17001247 113.89881179 -5.33028206 112.78558076 -6.44140625 111.625 C-8.27759145 109.71058134 -10.17103311 107.85976633 -12.0625 106 C-14.93139443 103.13647803 -17.4981146 100.19206068 -20 97 C-21.6454378 95.31237149 -23.31288577 93.6459651 -25 92 C-27.33333333 89.66666667 -29.66666667 87.33333333 -32 85 C-32 160.9 -32 236.8 -32 315 C-36 315 -36 315 -37.65174866 313.52108765 C-38.18569748 312.84816681 -38.7196463 312.17524597 -39.26977539 311.48193359 C-42.84684155 307.15240476 -46.68056049 303.22313815 -50.68359375 299.2890625 C-52.11926706 297.86601296 -53.55481034 296.44283223 -54.99023438 295.01953125 C-57.22918599 292.80556407 -59.4697262 290.59324756 -61.71264648 288.38330078 C-63.89477043 286.23119197 -66.07078648 284.07305801 -68.24609375 281.9140625 C-68.92409531 281.24952057 -69.60209686 280.58497864 -70.30064392 279.90029907 C-70.91871414 279.2856076 -71.53678436 278.67091614 -72.17358398 278.03759766 C-72.72094711 277.49769196 -73.26831024 276.95778625 -73.83226013 276.40151978 C-75 275 -75 275 -75 273 C-75.54785156 272.77957031 -76.09570312 272.55914063 -76.66015625 272.33203125 C-79.73548994 270.58129871 -82.00158721 268.21052934 -84.4375 265.6875 C-84.90220703 265.21376953 -85.36691406 264.74003906 -85.84570312 264.25195312 C-87.23322758 262.83733614 -88.61663507 261.41868488 -90 260 C-91.66538904 258.33205668 -93.33200584 256.66533812 -95 255 C-95.79019531 254.19820312 -96.58039063 253.39640625 -97.39453125 252.5703125 C-101.91324305 248.00050057 -106.4693536 243.59010878 -111.40625 239.47265625 C-114.19671756 236.89420951 -114.97783219 235.3076695 -115.25168228 231.50687408 C-115.26271975 230.01947537 -115.26258851 228.53197035 -115.25396729 227.04455566 C-115.25708727 226.22487604 -115.26020725 225.40519641 -115.26342177 224.56067801 C-115.27142192 221.8040515 -115.2650701 219.04764391 -115.25878906 216.29101562 C-115.2614982 214.31829702 -115.26505869 212.34557943 -115.26940918 210.37286377 C-115.27854943 205.00468035 -115.27498093 199.63657356 -115.26865101 194.26838875 C-115.2635938 188.64942338 -115.26828221 183.03046465 -115.27142334 177.41149902 C-115.2750662 167.96572694 -115.27025802 158.51998609 -115.26074219 149.07421875 C-115.24988221 138.16860262 -115.25336404 127.26306142 -115.264395 116.35744715 C-115.27348888 106.99083139 -115.27474212 97.62423813 -115.26951766 88.25761938 C-115.26640626 82.66537087 -115.26596527 77.07315748 -115.27259064 71.48091125 C-115.27839311 66.21470411 -115.27431427 60.94859279 -115.26280212 55.68239594 C-115.26016993 53.7551718 -115.26089585 51.82793953 -115.26532745 49.90071869 C-115.31688106 25.19102892 -115.31688106 25.19102892 -109.625 14.125 C-109.27832275 13.45009521 -108.93164551 12.77519043 -108.57446289 12.07983398 C-99.68239816 -4.32485823 -84.9174873 -14.42435807 -67.3984375 -20.1328125 C-41.88580095 -26.64293355 -18.31121823 -17.90049931 0 0 Z " fill="#112B69" transform="translate(469,381)"/>
<path d="M0 0 C2.04119788 1.61594832 4.04072937 3.2856382 6 5 C6 5.66 6 6.32 6 7 C4.02 7 2.04 7 0 7 C0 83.23 0 159.46 0 238 C-0.99 237.67 -1.98 237.34 -3 237 C-2.505 236.01 -2.505 236.01 -2 235 C-1.90381856 231.95109194 -1.86992782 228.92506909 -1.87974548 225.87594604 C-1.87889106 224.91868594 -1.87803663 223.96142584 -1.87715632 222.97515786 C-1.87550104 219.74758006 -1.88102369 216.52005353 -1.88647461 213.29248047 C-1.8867565 210.98679607 -1.88659872 208.68111159 -1.8860321 206.37542725 C-1.88574419 200.09887854 -1.89163995 193.82234879 -1.89860606 187.5458045 C-1.90484061 180.99278706 -1.90544348 174.43976922 -1.90663147 167.88674927 C-1.90922378 156.8823412 -1.91564439 145.87793981 -1.92456055 134.87353516 C-1.93373578 123.53759801 -1.94081607 112.20166276 -1.94506836 100.86572266 C-1.94533108 100.16729114 -1.94559381 99.46885962 -1.94586449 98.74926351 C-1.9471695 95.24553212 -1.94843322 91.74180071 -1.94967639 88.2380693 C-1.96004765 59.15870832 -1.97773899 30.07935425 -2 1 C-1.34 0.67 -0.68 0.34 0 0 Z " fill="#BBEDF7" transform="translate(588,321)"/>
<path d="M0 0 C4 2 4 2 6 5 C4.35 5 2.7 5 1 5 C1 31.07 1 57.14 1 84 C0.67 84 0.34 84 0 84 C0 56.28 0 28.56 0 0 Z " fill="#39D2EC" transform="translate(587,323)"/>
<path d="M0 0 C0.33 0 0.66 0 1 0 C1 18.48 1 36.96 1 56 C0.01 55.67 -0.98 55.34 -2 55 C-1.67 54.34 -1.34 53.68 -1 53 C-0.91504621 51.44810891 -0.89281303 49.89256431 -0.90234375 48.33837891 C-0.90564697 47.37042389 -0.9089502 46.40246887 -0.91235352 45.40518188 C-0.92065186 44.35623749 -0.9289502 43.30729309 -0.9375 42.2265625 C-0.94128662 41.15127289 -0.94507324 40.07598328 -0.94897461 38.96810913 C-0.96536944 34.35434395 -0.99345924 29.74066618 -1.02050781 25.12695312 C-1.03856601 21.76432706 -1.05067949 18.40171534 -1.0625 15.0390625 C-1.07079834 13.99416656 -1.07909668 12.94927063 -1.08764648 11.87271118 C-1.09094971 10.89845184 -1.09425293 9.9241925 -1.09765625 8.92041016 C-1.10289307 8.06484528 -1.10812988 7.2092804 -1.11352539 6.32778931 C-1.00401394 4.08230404 -0.62816952 2.15259845 0 0 Z " fill="#8BDEEE" transform="translate(587,503)"/>
<path d="M0 0 C-0.66 0.33 -1.32 0.66 -2 1 C-3.68883032 0.27148496 -5.37597701 -0.46171526 -7.046875 -1.23046875 C-9.96022114 -2.37832713 -12.90204561 -2.6838822 -16 -3 C-16 -3.66 -16 -4.32 -16 -5 C-26.89 -5 -37.78 -5 -49 -5 C-36.8138857 -13.1240762 -11.44069072 -7.45668855 0 0 Z " fill="#ADBACF" transform="translate(451,367)"/>
<path d="M0 0 C1.06528748 2.73019786 1.07998186 3.79298812 0.00390625 6.578125 C-0.47175781 7.45984375 -0.94742187 8.3415625 -1.4375 9.25 C-1.91058594 10.14203125 -2.38367188 11.0340625 -2.87109375 11.953125 C-3.24363281 12.62859375 -3.61617188 13.3040625 -4 14 C-4.66 14 -5.32 14 -6 14 C-5.31113213 10.61108678 -4.01283514 7.81988387 -2.4375 4.75 C-1.75494141 3.41195313 -1.75494141 3.41195313 -1.05859375 2.046875 C-0.70925781 1.37140625 -0.35992187 0.6959375 0 0 Z " fill="#6B80A8" transform="translate(363,389)"/>
<path d="M0 0 C-0.0625 1.75 -0.0625 1.75 -1 4 C-3.25123006 5.72518887 -5.40134903 6.76906007 -8 8 C-8.66 7.67 -9.32 7.34 -10 7 C-8.71372289 5.82739389 -7.42080217 4.6620717 -6.125 3.5 C-5.04605469 2.52546875 -5.04605469 2.52546875 -3.9453125 1.53125 C-2 0 -2 0 0 0 Z " fill="#91DAEE" transform="translate(539,523)"/>
<path d="M0 0 C0.66 0.33 1.32 0.66 2 1 C-1.59054233 4.88975419 -5.73898882 7.89732195 -10 11 C-8.55218207 7.55571735 -6.72305391 5.63869038 -3.875 3.25 C-3.15054687 2.63640625 -2.42609375 2.0228125 -1.6796875 1.390625 C-0.84824219 0.70226562 -0.84824219 0.70226562 0 0 Z " fill="#A7B4C9" transform="translate(379,372)"/>
<path d="M0 0 C0.66 0.33 1.32 0.66 2 1 C0.68 2.32 -0.64 3.64 -2 5 C-1.34 5.33 -0.68 5.66 0 6 C-0.33 6.99 -0.66 7.98 -1 9 C-1.99 8.67 -2.98 8.34 -4 8 C-4.25 5.6875 -4.25 5.6875 -4 3 C-2 1.1875 -2 1.1875 0 0 Z " fill="#B0DFEE" transform="translate(486,562)"/>
</svg>